<svg xmlns="http://www.w3.org/2000/svg" width="128" height="32" fill="none">
    <g clip-path="url(#a)">
        <path fill="#302D2B"
            d="M9.527 29.403c-2.945 0-5.19-.64-6.736-1.922C1.264 26.201.5 24.39.5 22.047c0-.824.11-1.739.331-2.745.24-1.006.562-1.985.966-2.937l2.374.686a15.76 15.76 0 0 0-.856 2.36c-.22.788-.33 1.492-.33 2.114 0 1.263.487 2.242 1.462 2.937.976.714 2.328 1.07 4.058 1.07h2.043c1.067 0 1.968-.072 2.705-.219.736-.128 1.334-.348 1.794-.659.478-.292.819-.677 1.021-1.152.221-.476.332-1.053.332-1.73v-1.235h-.166c-.552 1.665-1.748 2.498-3.588 2.498-1.49 0-2.65-.42-3.478-1.263-.828-.841-1.242-2.021-1.242-3.54 0-.915.138-1.766.414-2.553A6.747 6.747 0 0 1 9.47 13.62a5.444 5.444 0 0 1 1.74-1.372 5.002 5.002 0 0 1 2.208-.494c.864 0 1.637.192 2.317.577.682.384 1.252.942 1.713 1.674.477.732.836 1.628 1.076 2.69.257 1.06.387 2.26.387 3.595 0 1.647-.176 3.047-.525 4.2-.331 1.17-.875 2.113-1.63 2.827-.735.732-1.701 1.262-2.897 1.592-1.178.33-2.622.494-4.333.494Zm3.892-9.991c.753 0 1.36-.037 1.821-.11.478-.091.856-.238 1.132-.439-.074-1.08-.414-1.93-1.021-2.553a2.961 2.961 0 0 0-2.236-.96c-.792 0-1.435.229-1.932.686-.497.457-.745 1.034-.745 1.73 0 .585.201 1.005.607 1.262.422.256 1.021.384 1.794.384h.58Zm1.794-10.183c-.442 0-.81-.128-1.104-.384-.276-.275-.415-.705-.415-1.29 0-.604.139-1.034.415-1.29.294-.275.662-.412 1.104-.412h.469c.442 0 .8.137 1.076.412.295.256.442.686.442 1.29 0 .585-.147 1.015-.442 1.29-.275.256-.634.384-1.076.384h-.47Zm-4.113 0c-.442 0-.81-.128-1.104-.384-.276-.275-.414-.705-.414-1.29 0-.604.138-1.034.414-1.29.294-.275.662-.412 1.104-.412h.47c.44 0 .8.137 1.076.412.294.256.441.686.441 1.29 0 .585-.147 1.015-.441 1.29-.276.256-.635.384-1.077.384H11.1Zm10.632-6.533h2.954v20.311h-2.954V2.698ZM27.318 26h1.822c2.355 0 4.085-.439 5.19-1.317 1.104-.86 1.656-2.013 1.656-3.459v-.686h-.166c-.258.842-.7 1.473-1.325 1.894-.607.403-1.362.604-2.263.604-1.49 0-2.65-.42-3.478-1.263-.828-.841-1.242-2.021-1.242-3.54 0-.915.138-1.766.414-2.553a6.747 6.747 0 0 1 1.131-2.059 5.443 5.443 0 0 1 1.74-1.372 5.002 5.002 0 0 1 2.208-.494c1.73 0 3.082.714 4.057 2.141.975 1.427 1.463 3.413 1.463 5.956 0 1.537-.193 2.9-.58 4.09-.386 1.207-.966 2.232-1.739 3.074-.772.841-1.739 1.482-2.898 1.921-1.141.44-2.466.659-3.975.659h-2.015v-3.596Zm5.687-6.587c.753 0 1.36-.037 1.821-.11.478-.091.856-.238 1.132-.439-.037-1.061-.359-1.912-.966-2.553-.607-.64-1.372-.96-2.291-.96-.792 0-1.435.229-1.932.686-.479.457-.718 1.034-.718 1.73 0 .585.202 1.005.607 1.262.405.256.994.384 1.767.384h.58ZM48.092 9.387l-6.624 3.019-.746-1.62L47.32 7.74l.773 1.647Zm-5.852-.988c-.534 0-.948-.193-1.242-.577-.295-.402-.441-.96-.441-1.674V4.117h1.739v1.482c0 .403.174.604.524.604.478 0 .718-.348.718-1.043V3.32h1.711v1.126c0 .513.202.769.607.769.46 0 .69-.247.69-.741 0-.238-.037-.513-.11-.824-.074-.31-.175-.65-.304-1.015l1.712-.494c.146.402.248.805.303 1.207.074.403.11.769.11 1.098 0 .933-.211 1.665-.634 2.196-.405.512-.994.769-1.767.769-.423 0-.791-.12-1.104-.357-.313-.256-.516-.604-.607-1.043h-.11c-.148 1.592-.746 2.388-1.795 2.388Zm-3.552 17.6h1.077c1.766 0 3.027-.402 3.781-1.207.755-.787 1.123-1.94 1.105-3.459 0-.457-.028-.933-.083-1.427a24.28 24.28 0 0 0-.221-1.564l-.58-3.486 2.678-.44.414 2.416c.165.915.276 1.775.33 2.58h2.568v2.855l-.745.74H47.19a9.32 9.32 0 0 1-.745 2.69 6.438 6.438 0 0 1-1.463 2.059c-.608.585-1.343 1.034-2.209 1.345-.864.33-1.858.494-2.98.494h-1.105v-3.596Zm10.319-5.846.745-.741h2.954v2.855l-.745.74h-2.954v-2.854Zm2.965 0 .745-.741h2.954v2.855l-.745.74h-2.954v-2.854Zm2.965 0 .746-.741h1.104c.736 0 1.242-.156 1.518-.467.294-.31.442-.796.442-1.454V2.696h2.926v14.795c0 1.884-.378 3.275-1.132 4.172-.736.878-1.987 1.326-3.754 1.345h-1.85v-2.855ZM65.24 2.696h2.953v20.311H65.24V2.698Z"
            style="
    fill: #fff;
"></path>
        <path fill="#7D6D5E"
            d="M123.742.992c0 .547.45.992 1.007.992h1.006a.999.999 0 0 0 1.006-.992.999.999 0 0 0-1.006-.992h-1.006a.999.999 0 0 0-1.007.992ZM94.559 31.736h4.888l-1.423-1.402a2.027 2.027 0 0 0-1.423-.581H94.56c-7.781 0-14.09-6.217-14.09-13.885S86.779 1.984 94.56 1.983h16.102c7.781 0 14.089 6.217 14.089 13.885s-6.308 13.885-14.089 13.885h-6.024a3.042 3.042 0 0 1-2.135-.872l-1.667-1.643a5.07 5.07 0 0 0-3.558-1.452h-2.718c-5.558 0-10.064-4.44-10.064-9.918 0-5.477 4.506-9.917 10.064-9.917h16.102c5.558 0 10.063 4.44 10.063 9.917 0 5.477-4.505 9.918-10.063 9.918h-3.868a3.042 3.042 0 0 1-2.135-.872l-1.667-1.643a5.072 5.072 0 0 0-3.558-1.453h-4.874c-3.335 0-6.038-2.664-6.038-5.95s2.703-5.95 6.038-5.95h16.102c3.334 0 6.037 2.664 6.037 5.95 0 3.246-2.637 5.886-5.916 5.95h-1.473a3.042 3.042 0 0 1-2.135-.87l-1.667-1.644a5.061 5.061 0 0 0-2.847-1.403l-.05-.05h-8.051c-1.112 0-2.013-.887-2.013-1.983 0-1.095.901-1.984 2.013-1.984h16.102c1.111 0 2.012.889 2.012 1.984s-.901 1.984-2.012 1.984h-4.026l1.423 1.402c.378.372.89.581 1.423.581h1.18c2.223 0 4.025-1.776 4.025-3.967 0-2.19-1.802-3.967-4.025-3.967H94.559c-2.223 0-4.026 1.776-4.026 3.967s1.803 3.967 4.026 3.967h7.39c.8 0 1.568.314 2.134.871l1.668 1.644a5.068 5.068 0 0 0 3.558 1.452h1.855v-.015c4.212-.256 7.548-3.704 7.548-7.919 0-4.382-3.605-7.934-8.051-7.934H94.559c-4.447 0-8.051 3.552-8.051 7.934s3.605 7.934 8.05 7.934h4.875c.8 0 1.568.314 2.135.871l1.667 1.644a5.07 5.07 0 0 0 3.558 1.452h3.868c6.669 0 12.075-5.328 12.075-11.901 0-6.573-5.406-11.901-12.075-11.901H94.559c-6.67 0-12.076 5.328-12.076 11.901 0 6.573 5.406 11.901 12.076 11.901h2.718c.8 0 1.569.314 2.135.871l1.667 1.644a5.07 5.07 0 0 0 3.558 1.452h6.024c8.892 0 16.101-7.104 16.101-15.868S119.553 0 110.661 0H94.559c-8.893 0-16.102 7.104-16.102 15.868s7.21 15.868 16.102 15.868Z">
        </path>
    </g>
    <defs>
        <clipPath id="a">
            <path fill="#fff" d="M.5 0h127v32H.5z"></path>
        </clipPath>
    </defs>
</svg>