<svg xmlns="http://www.w3.org/2000/svg" width="398" height="206" viewBox="0 0 398 206" fill="none"><script xmlns=""/>
<path d="M100.627 101.317C99.3753 101.317 98.6244 100.569 98.6244 99.3209C98.6244 98.0731 99.3753 97.3245 100.627 97.3245C101.878 97.3245 102.629 98.0731 102.629 99.3209C102.629 100.569 101.628 101.317 100.627 101.317Z" fill="#6A83FF"/>
<path d="M100.627 143.742C99.3753 143.742 98.6244 142.993 98.6244 141.746C98.6244 140.498 99.3753 139.749 100.627 139.749C101.878 139.749 102.629 140.498 102.629 141.746C102.629 142.993 101.628 143.742 100.627 143.742Z" fill="#6A83FF"/>
<path d="M29.5376 35.9351H29.0369C28.0357 35.9351 27.0344 36.6837 27.0344 37.9315C27.0344 39.1793 27.7854 39.9279 29.0369 39.9279H29.5376C30.5388 39.9279 31.5401 39.1793 31.5401 37.9315C31.5401 36.6837 30.5388 35.9351 29.5376 35.9351Z" fill="url(#paint0_linear_1638_32300)"/>
<path d="M21.5274 35.9351H21.0268C20.0255 35.9351 19.0243 36.6837 19.0243 37.9315C19.0243 39.1793 19.7752 39.9279 21.0268 39.9279H21.5274C22.5287 39.9279 23.53 39.1793 23.53 37.9315C23.53 36.6837 22.5287 35.9351 21.5274 35.9351Z" fill="url(#paint1_linear_1638_32300)"/>
<path d="M37.5471 35.9351H37.0465C36.0452 35.9351 35.0439 36.6837 35.0439 37.6819C35.0439 38.6802 35.7949 39.6784 36.7961 39.6784H37.2968C37.2968 39.6784 37.2968 39.6784 37.5471 39.6784C38.5483 39.6784 39.2993 38.9297 39.2993 37.9315C39.2993 36.9333 38.5483 36.1846 37.5471 35.9351Z" fill="url(#paint2_linear_1638_32300)"/>
<path d="M55.0696 60.3922C55.0696 59.394 54.3187 58.3958 53.0671 58.3958C51.8155 58.3958 51.0646 59.1444 51.0646 60.3922V60.8913C51.0646 61.8895 51.8155 62.8877 53.0671 62.8877C54.3187 62.8877 55.0696 62.1391 55.0696 60.8913V60.3922Z" fill="url(#paint3_linear_1638_32300)"/>
<path d="M51.8151 44.6693L51.5648 44.1702C51.0641 43.4215 49.8126 43.1719 49.0616 43.671C48.3107 44.1702 48.0604 45.4179 48.561 46.1666L48.8113 46.6657C49.0616 47.1648 49.8126 47.4144 50.3132 47.4144C50.5635 47.4144 51.0641 47.4144 51.3145 47.1648C52.3157 46.6657 52.566 45.6675 51.8151 44.6693Z" fill="url(#paint4_linear_1638_32300)"/>
<path d="M53.0671 66.3818C52.0658 66.3818 51.0646 67.1305 51.0646 68.3783V68.8774C51.0646 69.8756 51.8155 70.8738 53.0671 70.8738C54.3187 70.8738 55.0696 69.8756 55.0696 68.8774V68.3783C55.0696 67.1305 54.0684 66.3818 53.0671 66.3818Z" fill="url(#paint5_linear_1638_32300)"/>
<path d="M13.7678 35.9351H13.2672C12.2659 35.9351 11.2646 36.6837 11.2646 37.9315C11.2646 39.1793 12.0156 39.9279 13.2672 39.9279H13.7678C14.7691 39.9279 15.7703 39.1793 15.7703 37.9315C15.7703 36.6837 14.7691 35.9351 13.7678 35.9351Z" fill="url(#paint6_linear_1638_32300)"/>
<path d="M45.8079 38.6793L45.3073 38.4297C44.306 37.9306 43.3048 38.1802 42.8041 39.1784C42.3035 40.1766 42.5538 41.1748 43.5551 41.6739L43.8054 41.9235C44.0557 42.1731 44.5563 42.1731 44.8067 42.1731C45.5576 42.1731 46.0582 41.9235 46.3085 41.1748C46.8092 40.4262 46.5589 39.1784 45.8079 38.6793Z" fill="url(#paint7_linear_1638_32300)"/>
<path d="M57.3222 90.3374C56.8216 89.5887 55.57 89.3392 54.8191 89.8383C54.0681 90.3374 53.8178 91.5852 54.3184 92.3338L54.5688 92.8329C54.8191 93.3321 55.57 93.5816 56.0706 93.5816C56.321 93.5816 56.8216 93.5816 57.0719 93.3321C57.8228 92.8329 58.0732 91.5852 57.5725 90.8365L57.3222 90.3374Z" fill="url(#paint8_linear_1638_32300)"/>
<path d="M62.8293 95.3303L62.579 95.0807C61.5778 94.5816 60.5765 94.8312 60.0759 95.5798C59.5753 96.578 59.8256 97.5763 60.5765 98.0754L61.0771 98.3249C61.3275 98.5745 61.5778 98.5745 62.0784 98.5745C62.8293 98.5745 63.33 98.3249 63.8306 97.5763C64.0809 97.0772 63.5803 95.8294 62.8293 95.3303Z" fill="url(#paint9_linear_1638_32300)"/>
<path d="M69.3376 97.3247H68.837C67.8357 97.3247 66.8345 98.0734 66.8345 99.0716C66.8345 100.07 67.5854 101.068 68.5867 101.068H69.0873C69.0873 101.068 69.0873 101.068 69.3376 101.068C70.3389 101.068 71.0898 100.319 71.0898 99.3211C71.3401 98.3229 70.5892 97.5743 69.3376 97.3247Z" fill="url(#paint10_linear_1638_32300)"/>
<path d="M53.0665 54.9014C54.3181 54.6518 55.069 53.9031 54.8187 52.9049V52.4058C54.5684 51.4076 53.8175 50.6589 52.5659 50.9085C51.5646 51.158 50.8137 51.9067 51.064 53.1545V53.6536C51.3143 54.1527 52.0653 54.9014 53.0665 54.9014Z" fill="url(#paint11_linear_1638_32300)"/>
<path d="M55.0692 84.0993V83.6002C55.0692 82.6019 54.0679 81.8533 53.0667 81.8533C52.0654 81.8533 51.3145 82.8515 51.3145 83.8497C51.3145 84.0993 51.3145 84.3488 51.3145 84.3488C51.5648 85.347 52.3157 85.8462 53.0667 85.8462H53.317C54.5685 86.0957 55.3195 85.0975 55.0692 84.0993Z" fill="url(#paint12_linear_1638_32300)"/>
<path d="M53.0671 78.6084C54.0684 78.6084 55.0696 77.8598 55.0696 76.612V76.1129C55.0696 75.1147 54.3187 74.1165 53.0671 74.1165C51.8155 74.1165 51.0646 74.8651 51.0646 76.1129V76.612C51.3149 77.6102 52.0658 78.6084 53.0671 78.6084Z" fill="url(#paint13_linear_1638_32300)"/>
<path d="M5.50691 35.9351C4.50565 35.9351 3.50439 36.6837 3.50439 37.9315C3.50439 39.1793 4.25534 39.9279 5.50691 39.9279H5.75722C6.75848 39.9279 7.50943 39.1793 7.50943 37.9315C7.50943 36.6837 6.50817 35.9351 5.50691 35.9351Z" fill="url(#paint14_linear_1638_32300)"/>
<path d="M100.627 97.5762H92.8671H92.3664H84.857H84.3564H77.0973H76.5966C75.5954 97.5762 74.5941 98.3248 74.5941 99.5726C74.5941 100.82 75.3451 101.569 76.5966 101.569H77.0973H84.3564H85.1073H92.6168H93.1174H100.877C101.878 101.569 102.88 100.82 102.88 99.5726C102.88 98.3248 101.628 97.5762 100.627 97.5762Z" fill="url(#paint15_linear_1638_32300)"/>
<path d="M100.627 121.782C99.3753 121.782 98.6244 121.034 98.6244 119.786C98.6244 118.538 99.3753 117.789 100.627 117.789C101.878 117.789 102.629 118.538 102.629 119.786C102.629 121.034 101.628 121.782 100.627 121.782Z" fill="#EE4192"/>
<path d="M35.0442 118.039H34.5435C33.5423 118.039 32.541 118.787 32.541 120.035C32.541 121.283 33.292 122.031 34.5435 122.031H35.0442C36.0454 122.031 37.0467 121.283 37.0467 120.035C37.0467 118.787 36.0454 118.039 35.0442 118.039Z" fill="url(#paint16_linear_1638_32300)"/>
<path d="M43.3045 118.039H42.8039C41.8027 118.039 40.8014 118.787 40.8014 120.035C40.8014 121.283 41.5523 122.031 42.8039 122.031H43.3045C44.3058 122.031 45.3071 121.283 45.3071 120.035C45.3071 118.787 44.3058 118.039 43.3045 118.039Z" fill="url(#paint17_linear_1638_32300)"/>
<path d="M26.7837 118.039H26.283C25.2818 118.039 24.2805 118.787 24.2805 120.035C24.2805 121.283 25.0315 122.031 26.283 122.031H26.7837C27.7849 122.031 28.7862 121.283 28.7862 120.035C28.7862 118.787 27.7849 118.039 26.7837 118.039Z" fill="url(#paint18_linear_1638_32300)"/>
<path d="M18.5233 118.039H18.0227C17.0214 118.039 16.0201 118.787 16.0201 120.035C16.0201 121.283 16.7711 122.031 18.0227 122.031H18.5233C19.5245 122.031 20.5258 121.283 20.5258 120.035C20.5258 118.787 19.5245 118.039 18.5233 118.039Z" fill="url(#paint19_linear_1638_32300)"/>
<path d="M10.2629 118.039H9.76228C8.76102 118.039 7.75977 118.787 7.75977 120.035C7.75977 121.283 8.51071 122.031 9.76228 122.031H10.2629C11.2642 122.031 12.2654 121.283 12.2654 120.035C12.2654 118.787 11.5145 118.039 10.2629 118.039Z" fill="url(#paint20_linear_1638_32300)"/>
<path d="M68.0858 118.039H67.5852C66.5839 118.039 65.5826 118.787 65.5826 120.035C65.5826 121.283 66.3336 122.031 67.5852 122.031H68.0858C69.087 122.031 70.0883 121.283 70.0883 120.035C70.0883 118.787 69.087 118.039 68.0858 118.039Z" fill="url(#paint21_linear_1638_32300)"/>
<path d="M51.5649 118.039H51.0643C50.063 118.039 49.0618 118.787 49.0618 120.035C49.0618 121.283 49.8127 122.031 51.0643 122.031H51.5649C52.5662 122.031 53.5674 121.283 53.5674 120.035C53.5674 118.787 52.5662 118.039 51.5649 118.039Z" fill="url(#paint22_linear_1638_32300)"/>
<path d="M59.8254 118.039H59.3248C58.3235 118.039 57.3223 118.787 57.3223 120.035C57.3223 121.283 58.0732 122.031 59.3248 122.031H59.8254C60.8267 122.031 61.8279 121.283 61.8279 120.035C61.8279 118.787 60.8267 118.039 59.8254 118.039Z" fill="url(#paint23_linear_1638_32300)"/>
<path d="M2.25283 118.039H2.00252C1.00126 118.039 0 118.787 0 120.035C0 121.283 0.750943 122.031 2.00252 122.031H2.25283C3.25409 122.031 4.25535 121.283 4.25535 120.035C4.25535 118.787 3.25409 118.039 2.25283 118.039Z" fill="url(#paint24_linear_1638_32300)"/>
<path d="M100.627 118.039H92.6167H92.1161H84.3563H83.8557H76.8469H76.5966H76.3463H75.8457C74.8444 118.039 73.8431 118.787 73.8431 120.035C73.8431 121.283 74.5941 122.031 75.8457 122.031H76.3463H76.5966H76.8469H83.8557H84.3563H92.1161H92.6167H100.627C101.628 122.031 102.629 121.283 102.629 120.035C102.629 118.787 101.628 118.039 100.627 118.039Z" fill="url(#paint25_linear_1638_32300)"/>
<path d="M43.8054 199.391L43.5551 199.641C42.5538 200.14 42.3035 201.388 42.8041 202.137C43.0545 202.636 43.8054 203.135 44.5563 203.135C44.8067 203.135 45.057 203.135 45.5576 202.885L46.0582 202.636C47.0595 202.137 47.3098 200.889 46.5589 200.14C45.8079 199.142 44.5563 198.643 43.8054 199.391Z" fill="url(#paint26_linear_1638_32300)"/>
<path d="M37.047 201.388H36.5464C35.5451 201.388 34.7942 202.386 34.7942 203.385C34.7942 204.383 35.7954 205.132 36.5464 205.132H37.047C38.0483 205.132 38.7992 204.133 38.7992 203.135C39.0495 202.137 38.0483 201.388 37.047 201.388Z" fill="url(#paint27_linear_1638_32300)"/>
<path d="M53.3169 186.166C52.3156 185.916 51.3144 186.665 51.3144 187.913V188.412C51.0641 189.41 51.815 190.408 52.8163 190.658H53.0666C54.0678 190.658 54.8188 189.909 54.8188 189.16V188.661C55.0691 187.414 54.3182 186.415 53.3169 186.166Z" fill="url(#paint28_linear_1638_32300)"/>
<path d="M29.5376 201.637H29.0369C28.0357 201.637 27.0344 202.386 27.0344 203.634C27.0344 204.881 27.7854 205.63 29.0369 205.63H29.5376C30.5388 205.63 31.5401 204.881 31.5401 203.634C31.5401 202.386 30.5388 201.637 29.5376 201.637Z" fill="url(#paint29_linear_1638_32300)"/>
<path d="M53.0671 178.429C52.0658 178.429 51.0646 179.178 51.0646 180.425V180.925C51.0646 181.923 51.8155 182.921 53.0671 182.921C54.3187 182.921 55.0696 182.172 55.0696 180.925V180.425C55.0696 179.178 54.0684 178.429 53.0671 178.429Z" fill="url(#paint30_linear_1638_32300)"/>
<path d="M13.7678 201.637H13.2672C12.2659 201.637 11.2646 202.386 11.2646 203.634C11.2646 204.881 12.0156 205.63 13.2672 205.63H13.7678C14.7691 205.63 15.7703 204.881 15.7703 203.634C15.7703 202.386 14.7691 201.637 13.7678 201.637Z" fill="url(#paint31_linear_1638_32300)"/>
<path d="M21.5274 201.637H21.0268C20.0255 201.637 19.0243 202.386 19.0243 203.634C19.0243 204.881 19.7752 205.63 21.0268 205.63H21.5274C22.5287 205.63 23.53 204.881 23.53 203.634C23.53 202.386 22.5287 201.637 21.5274 201.637Z" fill="url(#paint32_linear_1638_32300)"/>
<path d="M51.3149 193.902C50.564 193.403 49.3124 193.652 48.8118 194.401L48.5615 194.9C48.0609 195.649 48.3112 196.896 49.0621 197.396C49.3124 197.645 49.8131 197.645 50.0634 197.645C50.564 197.645 51.3149 197.396 51.5653 196.896L51.8156 196.397C52.5665 195.649 52.3162 194.401 51.3149 193.902Z" fill="url(#paint33_linear_1638_32300)"/>
<path d="M60.8269 142.495L60.3263 142.744C59.325 143.244 59.0747 144.491 59.8257 145.24C60.076 145.739 60.8269 146.238 61.3276 146.238C61.5779 146.238 62.0785 146.238 62.3288 145.989L62.5791 145.739C63.5804 145.24 63.8307 143.992 63.3301 143.244C62.8294 142.495 61.8282 141.996 60.8269 142.495Z" fill="url(#paint34_linear_1638_32300)"/>
<path d="M69.0873 139.999H68.5867C67.5854 139.999 66.8345 140.997 66.8345 141.995C66.8345 142.993 67.8357 143.742 68.5867 143.742H68.837H69.3376C70.3389 143.742 71.0898 142.744 71.0898 141.745C71.0898 140.747 70.0886 139.999 69.0873 139.999Z" fill="url(#paint35_linear_1638_32300)"/>
<path d="M54.5694 148.483L54.3191 148.982C53.8184 149.731 54.0687 150.979 54.8197 151.478C55.07 151.727 55.5706 151.727 55.8209 151.727C56.3216 151.727 57.0725 151.478 57.3228 150.979L57.5731 150.729C58.0738 149.98 57.8235 148.733 57.0725 148.234C56.3216 147.235 55.07 147.485 54.5694 148.483Z" fill="url(#paint36_linear_1638_32300)"/>
<path d="M53.0671 170.443C52.0658 170.443 51.0646 171.192 51.0646 172.439V172.938C51.0646 173.937 51.8155 174.935 53.0671 174.935C54.3187 174.935 55.0696 174.186 55.0696 172.938V172.439C55.0696 171.441 54.0684 170.443 53.0671 170.443Z" fill="url(#paint37_linear_1638_32300)"/>
<path d="M53.0671 162.708C52.0658 162.708 51.0646 163.457 51.0646 164.705V165.204C51.0646 166.202 51.8155 167.2 53.0671 167.2C54.3187 167.2 55.0696 166.452 55.0696 165.204V164.705C55.0696 163.457 54.0684 162.708 53.0671 162.708Z" fill="url(#paint38_linear_1638_32300)"/>
<path d="M53.5678 154.972C52.5665 154.722 51.5653 155.471 51.3149 156.469C51.3149 156.719 51.3149 156.968 51.3149 156.968C51.3149 157.967 52.0659 158.965 53.0671 158.965H53.3175C54.3187 158.965 55.0697 158.216 55.0697 157.218V156.719C55.32 155.97 54.569 154.972 53.5678 154.972Z" fill="url(#paint39_linear_1638_32300)"/>
<path d="M5.5074 201.637C4.50614 201.637 3.50488 202.386 3.50488 203.634C3.50488 204.881 4.25583 205.63 5.5074 205.63H5.75771C6.75897 205.63 7.50991 204.881 7.50991 203.634C7.50991 202.386 6.50866 201.637 5.5074 201.637Z" fill="url(#paint40_linear_1638_32300)"/>
<path d="M100.627 139.999H92.867H92.3664H84.857H84.3563H76.8469H76.5966H76.3463C75.345 139.999 74.3438 140.747 74.3438 141.995C74.3438 143.243 75.0947 143.991 76.3463 143.991H76.5966H76.8469H84.3563H85.1073H92.6167H93.1173H100.877C101.878 143.991 102.88 143.243 102.88 141.995C102.88 140.747 101.628 139.999 100.627 139.999Z" fill="url(#paint41_linear_1638_32300)"/>
<path d="M297.374 101.317C296.372 101.317 295.371 100.569 295.371 99.3209C295.371 98.0731 296.122 97.3245 297.123 97.3245H297.374C298.375 97.3245 299.376 98.0731 299.376 99.3209C299.376 100.569 298.375 101.317 297.374 101.317Z" fill="#EE4192"/>
<path d="M297.374 143.742C296.372 143.742 295.371 142.993 295.371 141.746C295.371 140.498 296.122 139.749 297.123 139.749H297.374C298.375 139.749 299.376 140.498 299.376 141.746C299.376 142.993 298.375 143.742 297.374 143.742Z" fill="#6A83FF"/>
<path d="M344.683 58.645C343.682 58.645 342.681 59.3937 342.681 60.6415V61.1406C342.681 62.1388 343.431 63.137 344.683 63.137C345.935 63.137 346.686 62.3883 346.686 61.1406V60.6415C346.686 59.3937 345.684 58.645 344.683 58.645Z" fill="url(#paint42_linear_1638_32300)"/>
<path d="M344.683 66.3818C343.682 66.3818 342.681 67.1305 342.681 68.3783V68.8774C342.681 69.8756 343.431 70.8738 344.683 70.8738C345.935 70.8738 346.686 70.1252 346.686 68.8774V68.3783C346.686 67.1305 345.684 66.3818 344.683 66.3818Z" fill="url(#paint43_linear_1638_32300)"/>
<path d="M344.682 82.1025C343.681 82.1025 342.68 82.8512 342.68 83.8494V84.3485C342.43 85.3467 343.181 86.345 344.182 86.5945H344.432C345.433 86.5945 346.184 85.8459 346.184 85.0972C346.184 84.8476 346.184 84.5981 346.184 84.5981C346.685 83.1008 345.934 82.1025 344.682 82.1025Z" fill="url(#paint44_linear_1638_32300)"/>
<path d="M342.931 89.8383C342.18 89.3392 340.928 89.5887 340.428 90.3374L340.177 90.5869C339.677 91.3356 339.927 92.5834 340.678 93.0825C340.928 93.332 341.429 93.3321 341.679 93.3321C342.18 93.3321 342.931 93.0825 343.181 92.5834L343.432 92.0843C344.182 91.3356 343.932 90.3374 342.931 89.8383Z" fill="url(#paint45_linear_1638_32300)"/>
<path d="M328.662 97.3247H328.162C327.161 97.3247 326.41 98.3229 326.41 99.3211C326.41 100.319 327.411 101.068 328.162 101.068C328.162 101.068 328.162 101.068 328.412 101.068H328.913C329.914 101.068 330.665 100.07 330.665 99.0716C330.665 98.0734 329.914 97.3247 328.662 97.3247Z" fill="url(#paint46_linear_1638_32300)"/>
<path d="M335.421 95.0799L335.171 95.3294C334.17 95.8285 333.919 97.0763 334.42 97.825C334.67 98.3241 335.421 98.8232 336.172 98.8232C336.423 98.8232 336.923 98.8232 337.174 98.5736L337.674 98.3241C338.675 97.825 338.926 96.5772 338.175 95.8285C337.424 94.8303 336.172 94.5808 335.421 95.0799Z" fill="url(#paint47_linear_1638_32300)"/>
<path d="M321.154 97.5762H320.653H313.394H312.893H305.384H304.883H297.123C296.122 97.5762 295.121 98.3248 295.121 99.5726C295.121 100.82 295.872 101.569 297.123 101.569H304.883H305.384H312.893H313.394H320.653H321.154C322.155 101.569 323.156 100.82 323.156 99.5726C323.156 98.3248 322.155 97.5762 321.154 97.5762Z" fill="url(#paint48_linear_1638_32300)"/>
<path d="M344.683 74.3679C343.682 74.3679 342.681 75.1166 342.681 76.3644V76.8635C342.681 77.8617 343.431 78.8599 344.683 78.8599C345.935 78.8599 346.686 78.1112 346.686 76.8635V76.3644C346.686 75.1166 345.684 74.3679 344.683 74.3679Z" fill="url(#paint49_linear_1638_32300)"/>
<path d="M376.723 35.9351H376.223C375.221 35.9351 374.22 36.6837 374.22 37.9315C374.22 39.1793 374.971 39.9279 376.223 39.9279H376.723C377.724 39.9279 378.726 39.1793 378.726 37.9315C378.726 36.6837 377.724 35.9351 376.723 35.9351Z" fill="url(#paint50_linear_1638_32300)"/>
<path d="M384.733 35.9351H384.233C383.231 35.9351 382.23 36.6837 382.23 37.9315C382.23 39.1793 382.981 39.9279 384.233 39.9279H384.733C385.735 39.9279 386.736 39.1793 386.736 37.9315C386.736 36.6837 385.735 35.9351 384.733 35.9351Z" fill="url(#paint51_linear_1638_32300)"/>
<path d="M368.963 35.9351H368.462C367.461 35.9351 366.46 36.6837 366.46 37.9315C366.46 39.1793 367.211 39.9279 368.462 39.9279H368.963C369.964 39.9279 370.966 39.1793 370.966 37.9315C370.966 36.6837 369.964 35.9351 368.963 35.9351Z" fill="url(#paint52_linear_1638_32300)"/>
<path d="M345.184 50.6592C344.182 50.4097 343.181 51.1583 342.931 52.1565V52.6557C342.931 53.6539 343.432 54.6521 344.683 54.6521H344.933C345.935 54.6521 346.686 53.9034 346.686 52.9052V52.4061C346.936 51.907 346.185 50.9088 345.184 50.6592Z" fill="url(#paint53_linear_1638_32300)"/>
<path d="M346.185 44.1702L345.935 44.6693C345.434 45.4179 345.685 46.6657 346.436 47.1648C346.686 47.4144 347.186 47.4144 347.437 47.4144C347.937 47.4144 348.688 47.1648 348.939 46.6657L349.189 46.1666C349.69 45.4179 349.439 44.1702 348.688 43.671C347.937 43.1719 346.936 43.4215 346.185 44.1702Z" fill="url(#paint54_linear_1638_32300)"/>
<path d="M352.693 38.4297L352.193 38.6793C351.191 39.1784 350.941 40.4262 351.692 41.1748C351.942 41.6739 352.693 42.1731 353.194 42.1731C353.444 42.1731 353.945 42.1731 354.195 41.9235L354.445 41.6739C355.447 41.1748 355.697 39.9271 355.196 39.1784C354.696 38.1802 353.444 37.9306 352.693 38.4297Z" fill="url(#paint55_linear_1638_32300)"/>
<path d="M360.953 35.9351H360.453C359.452 35.9351 358.701 36.9333 358.701 37.9315C358.701 38.9297 359.702 39.6784 360.453 39.6784C360.453 39.6784 360.453 39.6784 360.703 39.6784H361.204C362.205 39.6784 362.956 38.6802 362.956 37.6819C362.706 36.6837 361.955 35.9351 360.953 35.9351Z" fill="url(#paint56_linear_1638_32300)"/>
<path d="M392.493 35.9351C391.242 35.9351 390.491 36.6837 390.491 37.9315C390.491 39.1793 391.492 39.9279 392.493 39.9279C393.494 39.9279 394.496 39.1793 394.496 37.9315C394.496 36.6837 393.494 35.9351 392.493 35.9351Z" fill="url(#paint57_linear_1638_32300)"/>
<path d="M297.374 121.782C296.372 121.782 295.371 121.034 295.371 119.786C295.371 118.538 296.122 117.789 297.123 117.789H297.374C298.375 117.789 299.376 118.538 299.376 119.786C299.376 121.034 298.375 121.782 297.374 121.782Z" fill="#6A83FF"/>
<path d="M338.676 118.039H338.175C337.174 118.039 336.173 118.787 336.173 120.035C336.173 121.283 336.924 122.031 338.175 122.031H338.676C339.677 122.031 340.678 121.283 340.678 120.035C340.678 118.787 339.677 118.039 338.676 118.039Z" fill="url(#paint58_linear_1638_32300)"/>
<path d="M346.936 118.039H346.436C345.434 118.039 344.433 118.787 344.433 120.035C344.433 121.283 345.184 122.031 346.436 122.031H346.936C347.938 122.031 348.939 121.283 348.939 120.035C348.939 118.787 347.938 118.039 346.936 118.039Z" fill="url(#paint59_linear_1638_32300)"/>
<path d="M330.415 118.039H329.915C328.914 118.039 327.912 118.787 327.912 120.035C327.912 121.283 328.663 122.031 329.915 122.031H330.415C331.417 122.031 332.418 121.283 332.418 120.035C332.418 118.787 331.417 118.039 330.415 118.039Z" fill="url(#paint60_linear_1638_32300)"/>
<path d="M322.155 118.039H321.654H321.404H321.154H314.145H313.644H305.884H305.384H297.374C296.372 118.039 295.371 118.787 295.371 120.035C295.371 121.283 296.122 122.031 297.374 122.031H305.384H305.884H313.644H314.145H321.154H321.404H321.654H322.155C323.156 122.031 324.157 121.283 324.157 120.035C324.157 118.787 323.156 118.039 322.155 118.039Z" fill="url(#paint61_linear_1638_32300)"/>
<path d="M354.946 118.039H354.446C353.445 118.039 352.443 118.787 352.443 120.035C352.443 121.283 353.194 122.031 354.446 122.031H354.946C355.948 122.031 356.949 121.283 356.949 120.035C356.949 118.787 356.198 118.039 354.946 118.039Z" fill="url(#paint62_linear_1638_32300)"/>
<path d="M379.727 118.039H379.226C378.225 118.039 377.224 118.787 377.224 120.035C377.224 121.283 377.975 122.031 379.226 122.031H379.727C380.728 122.031 381.73 121.283 381.73 120.035C381.73 118.787 380.728 118.039 379.727 118.039Z" fill="url(#paint63_linear_1638_32300)"/>
<path d="M387.988 118.039H387.487C386.486 118.039 385.484 118.787 385.484 120.035C385.484 121.283 386.235 122.031 387.487 122.031H387.988C388.989 122.031 389.99 121.283 389.99 120.035C389.99 118.787 388.989 118.039 387.988 118.039Z" fill="url(#paint64_linear_1638_32300)"/>
<path d="M371.467 118.039H370.967C369.965 118.039 368.964 118.787 368.964 120.035C368.964 121.283 369.715 122.031 370.967 122.031H371.467C372.469 122.031 373.47 121.283 373.47 120.035C373.47 118.787 372.469 118.039 371.467 118.039Z" fill="url(#paint65_linear_1638_32300)"/>
<path d="M363.206 118.039H362.705C361.704 118.039 360.703 118.787 360.703 120.035C360.703 121.283 361.453 122.031 362.705 122.031H363.206C364.207 122.031 365.208 121.283 365.208 120.035C365.208 118.787 364.207 118.039 363.206 118.039Z" fill="url(#paint66_linear_1638_32300)"/>
<path d="M395.998 118.039C394.746 118.039 393.995 118.787 393.995 120.035C393.995 121.283 394.996 122.031 395.998 122.031C396.999 122.031 398 121.283 398 120.035C398 118.787 396.999 118.039 395.998 118.039Z" fill="url(#paint67_linear_1638_32300)"/>
<path d="M337.424 142.743L336.924 142.493C335.922 141.994 334.921 142.244 334.421 143.242C333.92 144.24 334.17 145.238 335.172 145.737L335.422 145.987C335.672 146.237 336.173 146.237 336.423 146.237C337.174 146.237 337.675 145.987 337.925 145.238C338.426 144.49 338.175 143.491 337.424 142.743Z" fill="url(#paint68_linear_1638_32300)"/>
<path d="M343.432 148.982L343.182 148.483C342.681 147.734 341.43 147.484 340.679 147.984C339.928 148.483 339.677 149.73 340.178 150.479L340.428 150.729C340.679 151.228 341.43 151.477 341.93 151.477C342.18 151.477 342.681 151.477 342.931 151.228C343.933 150.978 344.183 149.73 343.432 148.982Z" fill="url(#paint69_linear_1638_32300)"/>
<path d="M344.683 158.965C345.934 158.965 346.685 157.967 346.435 156.968C346.435 156.719 346.435 156.469 346.435 156.469C346.185 155.471 345.184 154.722 344.182 154.972C343.181 155.222 342.43 155.97 342.68 157.218V157.717C342.931 158.466 343.682 158.965 344.683 158.965Z" fill="url(#paint70_linear_1638_32300)"/>
<path d="M321.154 139.999H320.903H320.653H313.143H312.643H305.133H304.633H296.873C295.872 139.999 294.87 140.747 294.87 141.995C294.87 143.243 295.621 143.991 296.873 143.991H304.633H305.133H312.643H313.143H320.653H320.903H321.154C322.155 143.991 323.156 143.243 323.156 141.995C323.156 140.747 322.155 139.999 321.154 139.999Z" fill="url(#paint71_linear_1638_32300)"/>
<path d="M344.683 170.443C343.682 170.443 342.68 171.192 342.68 172.439V172.938C342.68 173.937 343.431 174.935 344.683 174.935C345.935 174.935 346.685 174.186 346.685 172.938V172.439C346.685 171.441 345.684 170.443 344.683 170.443Z" fill="url(#paint72_linear_1638_32300)"/>
<path d="M346.685 164.456C346.685 163.457 345.935 162.459 344.683 162.459C343.431 162.459 342.68 163.208 342.68 164.456V164.955C342.68 165.953 343.431 166.951 344.683 166.951C345.935 166.951 346.685 166.203 346.685 164.955V164.456Z" fill="url(#paint73_linear_1638_32300)"/>
<path d="M344.683 182.672C345.684 182.672 346.685 181.923 346.685 180.675V180.176C346.685 179.178 345.935 178.18 344.683 178.18C343.431 178.18 342.68 178.929 342.68 180.176V180.675C342.931 181.923 343.682 182.672 344.683 182.672Z" fill="url(#paint74_linear_1638_32300)"/>
<path d="M329.163 139.999H328.662C327.661 139.999 326.66 140.747 326.66 141.745C326.66 142.744 327.411 143.742 328.412 143.742H328.912H329.163C330.164 143.742 330.915 142.993 330.915 141.995C330.915 140.997 330.164 140.248 329.163 139.999Z" fill="url(#paint75_linear_1638_32300)"/>
<path d="M349.189 194.401C348.688 193.652 347.437 193.403 346.686 193.902C345.935 194.401 345.685 195.649 346.185 196.397L346.435 196.896C346.686 197.396 347.437 197.645 347.937 197.645C348.188 197.645 348.688 197.645 348.939 197.396C349.69 196.896 349.94 195.649 349.439 194.9L349.189 194.401Z" fill="url(#paint76_linear_1638_32300)"/>
<path d="M346.686 188.412V187.913C346.686 186.915 345.684 186.166 344.683 186.166C343.682 186.166 342.931 187.164 342.931 188.162V188.662C343.181 189.66 343.932 190.159 344.683 190.159H344.933C346.185 190.408 346.936 189.41 346.686 188.412Z" fill="url(#paint77_linear_1638_32300)"/>
<path d="M384.733 201.637H384.233C383.231 201.637 382.23 202.386 382.23 203.634C382.23 204.881 382.981 205.63 384.233 205.63H384.733C385.735 205.63 386.736 204.881 386.736 203.634C386.736 202.386 385.735 201.637 384.733 201.637Z" fill="url(#paint78_linear_1638_32300)"/>
<path d="M368.964 201.637H368.463C367.462 201.637 366.461 202.386 366.461 203.634C366.461 204.881 367.212 205.63 368.463 205.63H368.964C369.965 205.63 370.966 204.881 370.966 203.634C370.966 202.386 369.965 201.637 368.964 201.637Z" fill="url(#paint79_linear_1638_32300)"/>
<path d="M376.723 201.637H376.222C375.221 201.637 374.22 202.386 374.22 203.634C374.22 204.881 374.971 205.63 376.222 205.63H376.723C377.724 205.63 378.726 204.881 378.726 203.634C378.726 202.386 377.724 201.637 376.723 201.637Z" fill="url(#paint80_linear_1638_32300)"/>
<path d="M361.204 201.388H360.703C359.702 201.388 358.701 202.137 358.701 203.135C358.701 204.133 359.451 205.132 360.453 205.132H360.953C361.955 205.132 362.706 204.383 362.706 203.385C362.956 202.386 362.205 201.638 361.204 201.388Z" fill="url(#paint81_linear_1638_32300)"/>
<path d="M354.445 199.392L354.195 199.142C353.194 198.643 352.192 198.892 351.692 199.641C351.191 200.639 351.441 201.638 352.192 202.137L352.693 202.386C352.943 202.636 353.194 202.636 353.694 202.636C354.445 202.636 354.946 202.386 355.446 201.638C355.697 201.138 355.446 199.891 354.445 199.392Z" fill="url(#paint82_linear_1638_32300)"/>
<path d="M392.493 201.637C391.241 201.637 390.49 202.386 390.49 203.634C390.49 204.881 391.492 205.63 392.493 205.63C393.494 205.63 394.496 204.881 394.496 203.634C394.496 202.386 393.494 201.637 392.493 201.637Z" fill="url(#paint83_linear_1638_32300)"/>
<path d="M203.255 159.465C242.102 159.465 273.593 128.069 273.593 89.34C273.593 50.6111 242.102 19.2151 203.255 19.2151C164.408 19.2151 132.917 50.6111 132.917 89.34C132.917 128.069 164.408 159.465 203.255 159.465Z" fill="#23293A"/>
<path d="M267.586 158.963C289.428 158.963 307.135 141.31 307.135 119.534C307.135 97.7573 289.428 80.104 267.586 80.104C245.743 80.104 228.036 97.7573 228.036 119.534C228.036 141.31 245.743 158.963 267.586 158.963Z" fill="#23293A"/>
<path d="M267.586 159.465C289.638 159.465 307.636 141.524 307.636 119.535C307.636 99.4435 292.621 82.855 273.292 79.9155C263.922 5.73432 159.2 -4.25344 136.061 67.1151C109.171 66.3193 88.1115 87.6823 88.1115 113.296C88.1115 138.776 109.111 160.217 135.928 159.465H155.696H155.94H156.185H156.429H156.673H156.916H157.159H157.402H157.644H157.886H158.127H158.369H158.609H158.85H159.09H159.33H159.569H159.809H160.047H160.286H160.524H160.761H160.999H161.236H161.472H161.709H161.945H162.18H162.416H162.651H162.885H163.119H163.353H163.587H163.82H164.053H164.285H164.517H164.749H164.981H165.212H165.443H165.673H165.903H166.133H166.362H166.591H166.82H167.048H167.276H167.504H167.731H167.958H168.185H168.411H168.637H168.863H169.088H169.313H169.538H169.762H169.986H170.209H170.433H170.655H170.878H171.1H171.322H171.544H171.765H171.986H172.206H172.426H172.646H172.866H173.085H173.304H173.522H173.741H173.958H174.176H174.393H174.61H174.826H175.043H175.258H175.474H175.689H175.904H176.118H176.333H176.547H176.76H176.973H177.186H177.399H177.611H177.823H178.034H178.245H178.456H178.667H178.877H179.087H179.296H179.506H179.715H179.923H180.131H180.339H180.547H180.754H180.961H181.168H181.374H181.58H181.785H181.991H182.196H182.4H182.605H182.809H183.012H183.216H183.419H183.621H183.824H184.026H184.228H184.429H184.63H184.831H185.031H185.232H185.431H185.631H185.83H186.029H186.227H186.426H186.623H186.821H187.018H187.215H187.412H187.608H187.804H188H188.195H188.39H188.585H188.779H188.973H189.167H189.361H189.554H189.746H189.939H190.131H190.323H190.515H190.706H190.897H191.087H191.278H191.468H191.657H191.847H192.036H192.224H192.413H192.601H192.789H192.976H193.163H193.35H193.537H193.723H193.909H194.095H194.28H194.465H194.65H194.834H195.018H195.202H195.385H195.569H195.752H195.934H196.116H196.298H196.48H196.661H196.842H197.023H197.203H197.383H197.563H197.743H197.922H198.101H198.279H198.458H198.636H198.813H198.991H199.168H199.345H199.521H199.697H199.873H200.049H200.224H200.399H200.574H200.748H200.922H201.096H201.269H201.442H201.615H201.788H201.96H202.132H202.304H202.475H202.646H202.817H202.987H203.158H203.328H203.497H203.666H203.835H204.004H204.173H204.341H204.509H204.676H204.843H205.01H205.177H205.343H205.509H205.675H205.841H206.006H206.171H206.335H206.5H206.664H206.827H206.991H207.154H207.317H207.48H207.642H207.804H207.966H208.127H208.288H208.449H208.61H208.77H208.93H209.089H209.249H209.408H209.567H209.725H209.884H210.042H210.199H210.357H210.514H210.671H210.827H210.984H211.14H211.295H211.451H211.606H211.761H211.915H212.07H212.224H212.377H212.531H212.684H212.837H212.989H213.142H213.294H213.446H213.597H213.748H213.899H214.05H214.2H214.35H214.5H214.65H214.799H214.948H215.097H215.245H215.393H215.541H215.689H215.836H215.983H216.13H216.276H216.423H216.568H216.714H216.86H217.005H217.15H217.294H217.438H217.582H217.726H217.87H218.013H218.156H218.299H218.441H218.583H218.725H218.867H219.008H219.149H219.29H219.43H219.57H219.71H219.85H219.99H220.129H220.268H220.406H220.545H220.683H220.821H220.958H221.096H221.233H221.369H221.506H221.642H221.778H221.914H222.049H222.184H222.319H222.454H222.588H222.723H222.856H222.99H223.123H223.256H223.389H223.522H223.654H223.786H223.918H224.049H224.181H224.312H224.442H224.573H224.703H224.833H224.963H225.092H225.221H225.35H225.479H225.607H225.736H225.863H225.991H226.118H226.246H226.372H226.499H226.625H226.752H226.877H227.003H227.128H227.253H227.378H227.503H227.627H227.751H227.875H227.999H228.122H228.245H228.368H228.49H228.613H228.735H228.856H228.978H229.099H229.22H229.341H229.462H229.582H229.702H229.822H229.942H230.061H230.18H230.299H230.417H230.536H230.654H230.772H230.889H231.006H231.124H231.24H231.357H231.473H231.589H231.705H231.821H231.936H232.051H232.166H232.281H232.395H232.51H232.623H232.737H232.851H232.964H233.077H233.189H233.302H233.414H233.526H233.638H233.749H233.861H233.972H234.082H234.193H234.303H234.413H234.523H234.633H234.742H234.851H234.96H235.069H235.177H235.285H235.393H235.501H235.609H235.716H235.823H235.93H236.036H236.142H236.248H236.354H236.46H236.565H236.67H236.775H236.88H236.984H237.089H237.193H237.296H237.4H237.503H237.606H237.709H237.811H237.914H238.016H238.118H238.22H238.321H238.422H238.523H238.624H238.724H238.825H238.925H239.025H239.124H239.224H239.323H239.422H239.52H239.619H239.717H239.815H239.913H240.011H240.108H240.205H240.302H240.441H240.58H240.718H240.856H240.993H241.129H241.266H241.402H241.537H241.672H241.806H241.94H242.073H242.206H242.339H242.471H242.603H242.734H242.864H242.995H243.124H243.254H243.383H243.511H243.639H243.766H243.893H244.02H244.146H244.272H244.397H244.522H244.646H244.77H244.893H245.016H245.139H245.261H245.383H245.504H245.624H245.745H245.865H245.984H246.103H246.222H246.34H246.457H246.575H246.691H246.808H246.924H247.039H247.154H247.269H247.383H247.497H247.61H247.723H247.836H247.948H248.059H248.17H248.281H248.392H248.502H248.611H248.72H248.829H248.937H249.045H249.152H249.259H249.366H249.472H249.578H249.683H249.788H249.893H249.997H250.101H250.204H250.307H250.409H250.511H250.613H250.714H250.815H250.915H251.016H251.115H251.214H251.313H251.412H251.51H251.607H251.705H251.802H251.898H251.994H252.09H252.185H252.28H252.374H252.468H252.562H252.656H252.748H252.841H252.933H253.025H253.116H253.207H253.298H253.388H253.478H253.568H253.657H253.745H253.834H253.922H254.009H254.096H254.183H254.27H254.356H254.442H254.527H254.612H254.696H254.781H254.865H254.948H255.031H255.114H255.196H255.278H255.36H255.441H255.522H255.603H255.683H255.763H255.843H255.922H256H256.079H256.157H256.235H256.312H256.389H256.466H256.542H256.618H256.694H256.769H256.844H256.918H256.993H257.067H257.14H257.213H257.286H257.359H257.431H257.503H257.574H257.645H257.716H257.786H257.857H257.926H257.996H258.065H258.134H258.202H258.27H258.338H258.406H258.473H258.54H258.606H258.672H258.738H258.804H258.869H258.934H258.998H259.062H259.126H259.19H259.253H259.316H259.379H259.441H259.503H259.565H259.626H259.687H259.748H259.808H259.868H259.928H259.987H260.047H260.105H260.164H260.222H260.28H260.338H260.395H260.452H260.509H260.565H260.622H260.677H260.733H260.788H260.843H260.898H260.952H261.006H261.06H261.113H261.166H261.219H261.272H261.324H261.376H261.428H261.479H261.53H261.581H261.632H261.682H261.732H261.782H261.831H261.88H261.929H261.978H262.026H262.074H262.122H262.17H262.217H262.264H262.31H262.357H262.403H262.449H262.494H262.54H262.585H262.629H262.674H262.718H262.762H262.806H262.849H262.892H262.935H262.978H263.02H263.062H263.104H263.146H263.187H263.228H263.269H263.31H263.35H263.39H263.43H263.47H263.509H263.548H263.587H263.626H263.664H263.702H263.74H263.777H263.815H263.852H263.889H263.925H263.962H263.998H264.034H264.069H264.105H264.14H264.175H264.21H264.244H264.278H264.312H264.346H264.38H264.413H264.446H264.479H264.512H264.544H264.576H264.608H264.64H264.671H264.703H264.734H264.765H264.795H264.826H264.856H264.886H264.916H264.945H264.974H265.003H265.032H265.061H265.089H265.118H265.146H265.174H265.201H265.229H265.256H265.283H265.31H265.336H265.363H265.389H265.415H265.44H265.466H265.491H265.517H265.542H265.566H265.591H265.615H265.639H265.663H265.687H265.711H265.734H265.757H265.78H265.803H265.826H265.848H265.871H265.893H265.915H265.936H265.958H265.979H266H266.021H266.042H266.063H266.083H266.104H266.124H266.144H266.163H266.183H266.202H266.222H266.241H266.259H266.278H266.297H266.315H266.333H266.351H266.369H266.387H266.404H266.422H266.439H266.456H266.473H266.49H266.506H266.523H266.539H266.555H266.571H266.587H266.602H266.618H266.633H266.648H266.663H266.678H266.693H266.707H266.722H266.736H266.75H266.764H266.778H266.791H266.805H266.818H266.831H266.845H266.858H266.87H266.883H266.896H266.908H266.92H266.932H266.944H266.956H266.968H266.98H266.991H267.002H267.014H267.025H267.036H267.046H267.057H267.068H267.078H267.088H267.099H267.109H267.119H267.128H267.138H267.148H267.157H267.167H267.176H267.185H267.194H267.203H267.212H267.22H267.229H267.237H267.246H267.254H267.262H267.27H267.278H267.286H267.293H267.301H267.308H267.316H267.323H267.33H267.337H267.344H267.351H267.358H267.364H267.371H267.377H267.384H267.39H267.396H267.402H267.408H267.414H267.42H267.426H267.432H267.437H267.443H267.448H267.453H267.459H267.464H267.469H267.474H267.479H267.484H267.488H267.493H267.498H267.502H267.506H267.511H267.515H267.519H267.523H267.527H267.531H267.535H267.539H267.543H267.547H267.55H267.554H267.557H267.561H267.564H267.568H267.571H267.574H267.577H267.58H267.583H267.586Z" fill="#23293A" stroke="#2E3446"/>
<path d="M231.04 74.3657C229.288 74.3657 225.533 72.8684 224.282 72.3693C217.523 69.3746 206.259 60.3906 200.251 60.3906C194.244 60.3906 182.98 69.3746 176.221 72.3693C174.97 72.8684 171.215 74.3657 169.463 74.3657C166.96 74.3657 164.957 76.6117 165.207 79.3568C165.958 85.3461 167.46 96.077 171.716 109.803C176.972 126.772 192.241 137.004 197.999 140.248C199.501 140.997 201.253 140.997 202.504 140.248C208.262 137.004 223.531 126.772 228.787 109.803C233.043 96.077 234.795 85.3461 235.295 79.3568C235.546 76.6117 233.543 74.3657 231.04 74.3657Z" fill="#2D3344"/>
<path d="M206.26 91.8348V86.095C206.26 83.3499 204.007 80.6048 201.504 80.1057C199.502 79.8562 197.499 80.3553 196.247 81.8526C195.246 82.8508 194.495 84.3482 194.495 86.095V92.0844C192.993 93.0826 191.492 94.5799 190.49 96.0772C189.489 97.5746 188.988 99.3214 188.988 101.318C188.738 107.557 193.744 112.797 200.002 113.047C206.51 113.297 211.767 108.056 211.767 101.817C211.767 97.5746 209.514 93.8312 206.26 91.8348ZM201.754 102.815V105.81C201.754 106.309 201.504 106.559 201.003 106.559H199.752C199.251 106.559 199.001 106.309 199.001 105.81V103.813V102.566C197.749 102.316 197.249 101.068 197.499 99.8206C197.749 98.8223 198.5 97.8241 199.752 97.5746C201.504 97.0755 203.256 98.5728 203.256 100.32C203.006 101.318 202.505 102.316 201.754 102.815ZM203.757 90.8366C202.756 90.587 201.504 90.3375 200.253 90.3375C199.251 90.3375 198 90.587 196.998 90.8366V86.3446C196.998 85.3464 197.499 84.5977 198 84.0986C198.751 83.3499 200.253 82.8508 201.754 83.3499C203.006 83.849 203.757 85.0968 203.757 86.5941V90.8366Z" fill="url(#paint84_linear_1638_32300)"/>
<path d="M282.855 5.24007L281.103 20.962L269.839 22.7089L262.079 10.9798L280.603 1.99585L282.855 5.24007Z" fill="url(#paint85_linear_1638_32300)"/>
<path d="M281.103 20.9626L273.844 9.73265L279.1 0.249555L279.601 0L286.86 11.23L281.103 20.9626Z" fill="url(#paint86_linear_1638_32300)"/>
<path d="M279.601 0L274.345 9.23353L273.844 9.73265V9.9822L267.336 10.4813H267.086L262.079 10.9804L265.584 4.9911L265.834 4.49199L267.837 1.24777L270.84 0.99822L271.091 0.748665H271.591H273.093L276.347 0.249555H277.098L279.601 0Z" fill="#89A7FF"/>
<g opacity="0.3">
<path opacity="0.3" d="M269.088 3.99404C269.339 3.99404 269.339 3.99404 269.339 3.74449V1.9976C269.339 1.74805 269.339 1.74805 269.088 1.74805C268.838 1.74805 268.838 1.74805 268.838 1.9976V3.74449C268.838 3.99404 268.838 3.99404 269.088 3.99404Z" fill="white"/>
<path opacity="0.3" d="M273.844 1.49687L272.342 2.49509C272.342 2.49509 272.092 2.74464 272.342 2.74464H272.593C272.593 2.74464 272.593 2.74464 272.843 2.74464L274.345 1.49687C274.345 1.49687 274.595 1.24731 274.345 1.24731C274.094 1.49687 274.094 1.24731 273.844 1.49687Z" fill="white"/>
<path opacity="0.3" d="M270.09 5.73999L268.088 6.73821C267.837 6.73821 267.837 6.98777 267.837 6.98777L268.088 7.23732L270.09 6.2391C270.34 6.2391 270.34 5.98955 270.34 5.98955C270.34 5.73999 270.09 5.73999 270.09 5.73999Z" fill="white"/>
<path opacity="0.3" d="M273.094 5.98868C273.094 5.73912 272.843 5.73912 272.843 5.98868C272.593 5.98868 272.593 6.23823 272.843 6.23823L273.344 7.23645L273.594 7.48601C273.594 7.48601 273.594 7.48601 273.845 7.48601C274.095 7.48601 274.095 7.23645 273.845 7.23645L273.094 5.98868Z" fill="white"/>
<path opacity="0.3" d="M265.584 7.98545C265.334 7.98545 265.334 8.235 265.334 8.235V9.48278C265.334 9.73233 265.584 9.73233 265.584 9.73233C265.834 9.73233 265.834 9.48278 265.834 9.48278V8.235C265.834 7.98545 265.584 7.73589 265.584 7.98545Z" fill="white"/>
<path opacity="0.3" d="M276.347 1.49687C276.347 1.24731 276.097 1.24731 276.097 1.24731C275.846 1.24731 275.846 1.49687 275.846 1.49687L276.097 3.24375C276.097 3.49331 276.347 3.49331 276.347 3.49331C276.597 3.49331 276.597 3.24375 276.597 3.24375L276.347 1.49687Z" fill="white"/>
</g>
<path d="M95.3704 49.4129L89.1125 38.4325L95.6207 31.9441L106.134 36.1865L98.1239 50.4112L95.3704 49.4129Z" fill="url(#paint87_linear_1638_32300)"/>
<path d="M89.1125 38.4326L99.1251 42.4255L99.8761 50.9104L99.6258 51.4095L89.8635 47.4166L89.1125 38.4326Z" fill="url(#paint88_linear_1638_32300)"/>
<path d="M99.6261 51.4104L98.8751 42.9255V42.1768L102.88 38.9326L103.13 38.6831L106.134 36.1875L106.635 41.6777V41.9273L106.885 45.1715L105.133 46.6688L104.883 46.9184L104.632 47.1679L103.631 47.9166L101.629 49.6635L101.378 49.913L99.6261 51.4104Z" fill="#F665AA"/>
<g opacity="0.3">
<path opacity="0.3" d="M104.882 43.6719V43.9214L105.633 45.1692H105.883V44.9197L105.132 43.6719H104.882Z" fill="white"/>
<path opacity="0.3" d="M102.88 47.6639L103.38 46.1665C103.38 46.1665 103.38 45.917 103.13 45.917H102.88L102.379 47.4143C102.379 47.4143 102.379 47.6639 102.629 47.6639C102.629 47.9134 102.88 47.9134 102.88 47.6639Z" fill="white"/>
<path opacity="0.3" d="M103.38 43.1736L104.131 41.6763V41.4268H103.881L103.13 42.9241V43.1736C103.13 43.1736 103.38 43.1736 103.38 43.1736Z" fill="white"/>
<path opacity="0.3" d="M101.378 44.4228H101.628V44.1725L100.627 43.6719H100.376V43.9222L101.378 44.4228Z" fill="white"/>
<path opacity="0.3" d="M105.383 39.6822V39.4319L104.882 38.6809H104.632V38.9312L105.132 39.6822C105.132 39.6822 105.132 39.6822 105.383 39.6822Z" fill="white"/>
<path opacity="0.3" d="M101.378 48.6623H101.628V48.4128L100.627 47.4146H100.376V47.6641L101.378 48.6623Z" fill="white"/>
</g>
<path d="M237.798 187.663L250.815 184.668L255.32 192.904L248.061 202.137L236.046 189.909L237.798 187.663Z" fill="url(#paint89_linear_1638_32300)"/>
<path d="M250.815 184.669L243.806 193.403L235.045 191.656L234.795 191.407L241.553 182.672L250.815 184.669Z" fill="url(#paint90_linear_1638_32300)"/>
<path d="M234.544 191.406L243.305 193.153H244.056L246.309 198.144V198.394L248.061 202.137L242.554 201.139L242.054 200.889L238.8 200.39L237.798 198.144L237.548 197.894V197.395L237.047 196.397L235.796 193.652L235.545 193.153L234.544 191.406Z" fill="#F665AA"/>
<g opacity="0.3">
<path opacity="0.3" d="M240.803 198.646L240.553 198.396L239.051 198.897L238.801 199.147L239.051 199.397L240.553 198.897C240.803 198.897 240.803 198.646 240.803 198.646Z" fill="white"/>
<path opacity="0.3" d="M237.299 195.402L238.551 196.153H238.801V195.903L237.55 195.152H237.299C237.299 195.402 237.299 195.402 237.299 195.402Z" fill="white"/>
<path opacity="0.3" d="M241.804 197.397L243.055 198.645H243.306V198.395L242.054 197.147H241.804C241.804 197.147 241.804 197.147 241.804 197.397Z" fill="white"/>
<path opacity="0.3" d="M241.053 194.904V195.154H241.304L242.055 194.403V194.153H241.804L241.053 194.904Z" fill="white"/>
<path opacity="0.3" d="M244.808 200.393C244.808 200.393 245.058 200.644 245.058 200.393L245.809 200.143C245.809 200.143 246.059 199.893 245.809 199.893C245.809 199.893 245.559 199.642 245.559 199.893L244.808 200.143C244.808 200.143 244.557 200.143 244.808 200.393Z" fill="white"/>
<path opacity="0.3" d="M236.798 193.654C236.798 193.654 236.547 193.904 236.798 193.904C236.798 193.904 237.048 194.153 237.048 193.904L238.3 193.155C238.3 193.155 238.55 192.905 238.3 192.905C238.3 192.905 238.049 192.656 238.049 192.905L236.798 193.654Z" fill="white"/>
</g>
<defs>
<linearGradient id="paint0_linear_1638_32300" x1="-0.766757" y1="37.7683" x2="100.724" y2="37.7683" gradientUnits="userSpaceOnUse">
<stop stop-color="#83A6FF" stop-opacity="0"/>
<stop offset="1" stop-color="#5A78FF"/>
</linearGradient>
<linearGradient id="paint1_linear_1638_32300" x1="-0.766818" y1="37.7683" x2="100.723" y2="37.7683" gradientUnits="userSpaceOnUse">
<stop stop-color="#83A6FF" stop-opacity="0"/>
<stop offset="1" stop-color="#5A78FF"/>
</linearGradient>
<linearGradient id="paint2_linear_1638_32300" x1="-0.767288" y1="37.8257" x2="100.723" y2="37.8257" gradientUnits="userSpaceOnUse">
<stop stop-color="#83A6FF" stop-opacity="0"/>
<stop offset="1" stop-color="#5A78FF"/>
</linearGradient>
<linearGradient id="paint3_linear_1638_32300" x1="-0.7668" y1="60.656" x2="100.723" y2="60.656" gradientUnits="userSpaceOnUse">
<stop stop-color="#83A6FF" stop-opacity="0"/>
<stop offset="1" stop-color="#5A78FF"/>
</linearGradient>
<linearGradient id="paint4_linear_1638_32300" x1="-0.767245" y1="45.5212" x2="100.723" y2="45.5212" gradientUnits="userSpaceOnUse">
<stop stop-color="#83A6FF" stop-opacity="0"/>
<stop offset="1" stop-color="#5A78FF"/>
</linearGradient>
<linearGradient id="paint5_linear_1638_32300" x1="-0.7668" y1="68.5135" x2="100.723" y2="68.5135" gradientUnits="userSpaceOnUse">
<stop stop-color="#83A6FF" stop-opacity="0"/>
<stop offset="1" stop-color="#5A78FF"/>
</linearGradient>
<linearGradient id="paint6_linear_1638_32300" x1="-0.766718" y1="37.7683" x2="100.724" y2="37.7683" gradientUnits="userSpaceOnUse">
<stop stop-color="#83A6FF" stop-opacity="0"/>
<stop offset="1" stop-color="#5A78FF"/>
</linearGradient>
<linearGradient id="paint7_linear_1638_32300" x1="-0.766833" y1="40.1701" x2="100.723" y2="40.1701" gradientUnits="userSpaceOnUse">
<stop stop-color="#83A6FF" stop-opacity="0"/>
<stop offset="1" stop-color="#5A78FF"/>
</linearGradient>
<linearGradient id="paint8_linear_1638_32300" x1="-0.766989" y1="91.514" x2="100.723" y2="91.514" gradientUnits="userSpaceOnUse">
<stop stop-color="#83A6FF" stop-opacity="0"/>
<stop offset="1" stop-color="#5A78FF"/>
</linearGradient>
<linearGradient id="paint9_linear_1638_32300" x1="-0.766791" y1="96.8905" x2="100.723" y2="96.8905" gradientUnits="userSpaceOnUse">
<stop stop-color="#83A6FF" stop-opacity="0"/>
<stop offset="1" stop-color="#5A78FF"/>
</linearGradient>
<linearGradient id="paint10_linear_1638_32300" x1="-0.766656" y1="99.2632" x2="100.724" y2="99.2632" gradientUnits="userSpaceOnUse">
<stop stop-color="#83A6FF" stop-opacity="0"/>
<stop offset="1" stop-color="#5A78FF"/>
</linearGradient>
<linearGradient id="paint11_linear_1638_32300" x1="-0.767351" y1="52.8061" x2="100.723" y2="52.8061" gradientUnits="userSpaceOnUse">
<stop stop-color="#83A6FF" stop-opacity="0"/>
<stop offset="1" stop-color="#5A78FF"/>
</linearGradient>
<linearGradient id="paint12_linear_1638_32300" x1="-0.767229" y1="84.2216" x2="100.723" y2="84.2216" gradientUnits="userSpaceOnUse">
<stop stop-color="#83A6FF" stop-opacity="0"/>
<stop offset="1" stop-color="#5A78FF"/>
</linearGradient>
<linearGradient id="paint13_linear_1638_32300" x1="-0.7668" y1="76.3702" x2="100.723" y2="76.3702" gradientUnits="userSpaceOnUse">
<stop stop-color="#83A6FF" stop-opacity="0"/>
<stop offset="1" stop-color="#5A78FF"/>
</linearGradient>
<linearGradient id="paint14_linear_1638_32300" x1="-0.767222" y1="37.7683" x2="100.723" y2="37.7683" gradientUnits="userSpaceOnUse">
<stop stop-color="#83A6FF" stop-opacity="0"/>
<stop offset="1" stop-color="#5A78FF"/>
</linearGradient>
<linearGradient id="paint15_linear_1638_32300" x1="-0.766793" y1="99.3271" x2="100.723" y2="99.3271" gradientUnits="userSpaceOnUse">
<stop stop-color="#83A6FF" stop-opacity="0"/>
<stop offset="1" stop-color="#5A78FF"/>
</linearGradient>
<linearGradient id="paint16_linear_1638_32300" x1="0.988373" y1="120.029" x2="101.493" y2="120.029" gradientUnits="userSpaceOnUse">
<stop stop-color="#FF66A9" stop-opacity="0"/>
<stop offset="1" stop-color="#F53689"/>
</linearGradient>
<linearGradient id="paint17_linear_1638_32300" x1="0.988354" y1="120.029" x2="101.493" y2="120.029" gradientUnits="userSpaceOnUse">
<stop stop-color="#FF66A9" stop-opacity="0"/>
<stop offset="1" stop-color="#F53689"/>
</linearGradient>
<linearGradient id="paint18_linear_1638_32300" x1="0.988253" y1="120.029" x2="101.493" y2="120.029" gradientUnits="userSpaceOnUse">
<stop stop-color="#FF66A9" stop-opacity="0"/>
<stop offset="1" stop-color="#F53689"/>
</linearGradient>
<linearGradient id="paint19_linear_1638_32300" x1="0.988261" y1="120.029" x2="101.493" y2="120.029" gradientUnits="userSpaceOnUse">
<stop stop-color="#FF66A9" stop-opacity="0"/>
<stop offset="1" stop-color="#F53689"/>
</linearGradient>
<linearGradient id="paint20_linear_1638_32300" x1="0.988258" y1="120.029" x2="101.493" y2="120.029" gradientUnits="userSpaceOnUse">
<stop stop-color="#FF66A9" stop-opacity="0"/>
<stop offset="1" stop-color="#F53689"/>
</linearGradient>
<linearGradient id="paint21_linear_1638_32300" x1="0.988525" y1="120.029" x2="101.493" y2="120.029" gradientUnits="userSpaceOnUse">
<stop stop-color="#FF66A9" stop-opacity="0"/>
<stop offset="1" stop-color="#F53689"/>
</linearGradient>
<linearGradient id="paint22_linear_1638_32300" x1="0.9884" y1="120.029" x2="101.493" y2="120.029" gradientUnits="userSpaceOnUse">
<stop stop-color="#FF66A9" stop-opacity="0"/>
<stop offset="1" stop-color="#F53689"/>
</linearGradient>
<linearGradient id="paint23_linear_1638_32300" x1="0.988462" y1="120.029" x2="101.493" y2="120.029" gradientUnits="userSpaceOnUse">
<stop stop-color="#FF66A9" stop-opacity="0"/>
<stop offset="1" stop-color="#F53689"/>
</linearGradient>
<linearGradient id="paint24_linear_1638_32300" x1="0.988242" y1="120.029" x2="101.493" y2="120.029" gradientUnits="userSpaceOnUse">
<stop stop-color="#FF66A9" stop-opacity="0"/>
<stop offset="1" stop-color="#F53689"/>
</linearGradient>
<linearGradient id="paint25_linear_1638_32300" x1="0.988611" y1="120.029" x2="101.493" y2="120.029" gradientUnits="userSpaceOnUse">
<stop stop-color="#FF66A9" stop-opacity="0"/>
<stop offset="1" stop-color="#F53689"/>
</linearGradient>
<linearGradient id="paint26_linear_1638_32300" x1="-0.766835" y1="201.016" x2="100.723" y2="201.016" gradientUnits="userSpaceOnUse">
<stop stop-color="#83A6FF" stop-opacity="0"/>
<stop offset="1" stop-color="#5A78FF"/>
</linearGradient>
<linearGradient id="paint27_linear_1638_32300" x1="-0.766746" y1="203.361" x2="100.724" y2="203.361" gradientUnits="userSpaceOnUse">
<stop stop-color="#83A6FF" stop-opacity="0"/>
<stop offset="1" stop-color="#5A78FF"/>
</linearGradient>
<linearGradient id="paint28_linear_1638_32300" x1="-0.767286" y1="188.381" x2="100.723" y2="188.381" gradientUnits="userSpaceOnUse">
<stop stop-color="#83A6FF" stop-opacity="0"/>
<stop offset="1" stop-color="#5A78FF"/>
</linearGradient>
<linearGradient id="paint29_linear_1638_32300" x1="-0.766757" y1="203.418" x2="100.724" y2="203.418" gradientUnits="userSpaceOnUse">
<stop stop-color="#83A6FF" stop-opacity="0"/>
<stop offset="1" stop-color="#5A78FF"/>
</linearGradient>
<linearGradient id="paint30_linear_1638_32300" x1="-0.7668" y1="180.531" x2="100.723" y2="180.531" gradientUnits="userSpaceOnUse">
<stop stop-color="#83A6FF" stop-opacity="0"/>
<stop offset="1" stop-color="#5A78FF"/>
</linearGradient>
<linearGradient id="paint31_linear_1638_32300" x1="-0.766718" y1="203.418" x2="100.724" y2="203.418" gradientUnits="userSpaceOnUse">
<stop stop-color="#83A6FF" stop-opacity="0"/>
<stop offset="1" stop-color="#5A78FF"/>
</linearGradient>
<linearGradient id="paint32_linear_1638_32300" x1="-0.766818" y1="203.418" x2="100.723" y2="203.418" gradientUnits="userSpaceOnUse">
<stop stop-color="#83A6FF" stop-opacity="0"/>
<stop offset="1" stop-color="#5A78FF"/>
</linearGradient>
<linearGradient id="paint33_linear_1638_32300" x1="-0.766757" y1="195.665" x2="100.724" y2="195.665" gradientUnits="userSpaceOnUse">
<stop stop-color="#83A6FF" stop-opacity="0"/>
<stop offset="1" stop-color="#5A78FF"/>
</linearGradient>
<linearGradient id="paint34_linear_1638_32300" x1="-0.766686" y1="144.298" x2="100.724" y2="144.298" gradientUnits="userSpaceOnUse">
<stop stop-color="#83A6FF" stop-opacity="0"/>
<stop offset="1" stop-color="#5A78FF"/>
</linearGradient>
<linearGradient id="paint35_linear_1638_32300" x1="-0.766654" y1="141.925" x2="100.724" y2="141.925" gradientUnits="userSpaceOnUse">
<stop stop-color="#83A6FF" stop-opacity="0"/>
<stop offset="1" stop-color="#5A78FF"/>
</linearGradient>
<linearGradient id="paint36_linear_1638_32300" x1="-0.766378" y1="149.672" x2="100.724" y2="149.672" gradientUnits="userSpaceOnUse">
<stop stop-color="#83A6FF" stop-opacity="0"/>
<stop offset="1" stop-color="#5A78FF"/>
</linearGradient>
<linearGradient id="paint37_linear_1638_32300" x1="-0.7668" y1="172.674" x2="100.723" y2="172.674" gradientUnits="userSpaceOnUse">
<stop stop-color="#83A6FF" stop-opacity="0"/>
<stop offset="1" stop-color="#5A78FF"/>
</linearGradient>
<linearGradient id="paint38_linear_1638_32300" x1="-0.7668" y1="164.817" x2="100.723" y2="164.817" gradientUnits="userSpaceOnUse">
<stop stop-color="#83A6FF" stop-opacity="0"/>
<stop offset="1" stop-color="#5A78FF"/>
</linearGradient>
<linearGradient id="paint39_linear_1638_32300" x1="-0.76674" y1="156.967" x2="100.724" y2="156.967" gradientUnits="userSpaceOnUse">
<stop stop-color="#83A6FF" stop-opacity="0"/>
<stop offset="1" stop-color="#5A78FF"/>
</linearGradient>
<linearGradient id="paint40_linear_1638_32300" x1="-0.766734" y1="203.418" x2="100.724" y2="203.418" gradientUnits="userSpaceOnUse">
<stop stop-color="#83A6FF" stop-opacity="0"/>
<stop offset="1" stop-color="#5A78FF"/>
</linearGradient>
<linearGradient id="paint41_linear_1638_32300" x1="-0.766843" y1="141.861" x2="100.723" y2="141.861" gradientUnits="userSpaceOnUse">
<stop stop-color="#83A6FF" stop-opacity="0"/>
<stop offset="1" stop-color="#5A78FF"/>
</linearGradient>
<linearGradient id="paint42_linear_1638_32300" x1="399.219" y1="60.6557" x2="310.446" y2="60.6557" gradientUnits="userSpaceOnUse">
<stop stop-color="#FF66A9" stop-opacity="0"/>
<stop offset="1" stop-color="#F53689"/>
</linearGradient>
<linearGradient id="paint43_linear_1638_32300" x1="399.219" y1="68.5148" x2="310.446" y2="68.5148" gradientUnits="userSpaceOnUse">
<stop stop-color="#FF66A9" stop-opacity="0"/>
<stop offset="1" stop-color="#F53689"/>
</linearGradient>
<linearGradient id="paint44_linear_1638_32300" x1="399.218" y1="84.2225" x2="310.445" y2="84.2225" gradientUnits="userSpaceOnUse">
<stop stop-color="#FF66A9" stop-opacity="0"/>
<stop offset="1" stop-color="#F53689"/>
</linearGradient>
<linearGradient id="paint45_linear_1638_32300" x1="399.219" y1="91.5153" x2="310.446" y2="91.5153" gradientUnits="userSpaceOnUse">
<stop stop-color="#FF66A9" stop-opacity="0"/>
<stop offset="1" stop-color="#F53689"/>
</linearGradient>
<linearGradient id="paint46_linear_1638_32300" x1="399.219" y1="99.2632" x2="310.445" y2="99.2632" gradientUnits="userSpaceOnUse">
<stop stop-color="#FF66A9" stop-opacity="0"/>
<stop offset="1" stop-color="#F53689"/>
</linearGradient>
<linearGradient id="paint47_linear_1638_32300" x1="399.218" y1="96.8896" x2="310.446" y2="96.8896" gradientUnits="userSpaceOnUse">
<stop stop-color="#FF66A9" stop-opacity="0"/>
<stop offset="1" stop-color="#F53689"/>
</linearGradient>
<linearGradient id="paint48_linear_1638_32300" x1="399.219" y1="99.3271" x2="310.446" y2="99.3271" gradientUnits="userSpaceOnUse">
<stop stop-color="#FF66A9" stop-opacity="0"/>
<stop offset="1" stop-color="#F53689"/>
</linearGradient>
<linearGradient id="paint49_linear_1638_32300" x1="399.219" y1="76.3721" x2="310.446" y2="76.3721" gradientUnits="userSpaceOnUse">
<stop stop-color="#FF66A9" stop-opacity="0"/>
<stop offset="1" stop-color="#F53689"/>
</linearGradient>
<linearGradient id="paint50_linear_1638_32300" x1="399.219" y1="37.7683" x2="310.446" y2="37.7683" gradientUnits="userSpaceOnUse">
<stop stop-color="#FF66A9" stop-opacity="0"/>
<stop offset="1" stop-color="#F53689"/>
</linearGradient>
<linearGradient id="paint51_linear_1638_32300" x1="399.219" y1="37.7683" x2="310.446" y2="37.7683" gradientUnits="userSpaceOnUse">
<stop stop-color="#FF66A9" stop-opacity="0"/>
<stop offset="1" stop-color="#F53689"/>
</linearGradient>
<linearGradient id="paint52_linear_1638_32300" x1="399.218" y1="37.7683" x2="310.445" y2="37.7683" gradientUnits="userSpaceOnUse">
<stop stop-color="#FF66A9" stop-opacity="0"/>
<stop offset="1" stop-color="#F53689"/>
</linearGradient>
<linearGradient id="paint53_linear_1638_32300" x1="399.219" y1="52.8066" x2="310.446" y2="52.8066" gradientUnits="userSpaceOnUse">
<stop stop-color="#FF66A9" stop-opacity="0"/>
<stop offset="1" stop-color="#F53689"/>
</linearGradient>
<linearGradient id="paint54_linear_1638_32300" x1="399.219" y1="45.5212" x2="310.446" y2="45.5212" gradientUnits="userSpaceOnUse">
<stop stop-color="#FF66A9" stop-opacity="0"/>
<stop offset="1" stop-color="#F53689"/>
</linearGradient>
<linearGradient id="paint55_linear_1638_32300" x1="399.219" y1="40.1701" x2="310.446" y2="40.1701" gradientUnits="userSpaceOnUse">
<stop stop-color="#FF66A9" stop-opacity="0"/>
<stop offset="1" stop-color="#F53689"/>
</linearGradient>
<linearGradient id="paint56_linear_1638_32300" x1="399.219" y1="37.8244" x2="310.446" y2="37.8244" gradientUnits="userSpaceOnUse">
<stop stop-color="#FF66A9" stop-opacity="0"/>
<stop offset="1" stop-color="#F53689"/>
</linearGradient>
<linearGradient id="paint57_linear_1638_32300" x1="399.219" y1="37.7683" x2="310.445" y2="37.7683" gradientUnits="userSpaceOnUse">
<stop stop-color="#FF66A9" stop-opacity="0"/>
<stop offset="1" stop-color="#F53689"/>
</linearGradient>
<linearGradient id="paint58_linear_1638_32300" x1="397.959" y1="120.029" x2="295.854" y2="120.029" gradientUnits="userSpaceOnUse">
<stop stop-color="#83A6FF" stop-opacity="0"/>
<stop offset="1" stop-color="#5A78FF"/>
</linearGradient>
<linearGradient id="paint59_linear_1638_32300" x1="397.959" y1="120.029" x2="295.854" y2="120.029" gradientUnits="userSpaceOnUse">
<stop stop-color="#83A6FF" stop-opacity="0"/>
<stop offset="1" stop-color="#5A78FF"/>
</linearGradient>
<linearGradient id="paint60_linear_1638_32300" x1="397.959" y1="120.029" x2="295.854" y2="120.029" gradientUnits="userSpaceOnUse">
<stop stop-color="#83A6FF" stop-opacity="0"/>
<stop offset="1" stop-color="#5A78FF"/>
</linearGradient>
<linearGradient id="paint61_linear_1638_32300" x1="397.959" y1="120.029" x2="295.853" y2="120.029" gradientUnits="userSpaceOnUse">
<stop stop-color="#83A6FF" stop-opacity="0"/>
<stop offset="1" stop-color="#5A78FF"/>
</linearGradient>
<linearGradient id="paint62_linear_1638_32300" x1="397.959" y1="120.029" x2="295.854" y2="120.029" gradientUnits="userSpaceOnUse">
<stop stop-color="#83A6FF" stop-opacity="0"/>
<stop offset="1" stop-color="#5A78FF"/>
</linearGradient>
<linearGradient id="paint63_linear_1638_32300" x1="397.959" y1="120.029" x2="295.853" y2="120.029" gradientUnits="userSpaceOnUse">
<stop stop-color="#83A6FF" stop-opacity="0"/>
<stop offset="1" stop-color="#5A78FF"/>
</linearGradient>
<linearGradient id="paint64_linear_1638_32300" x1="397.959" y1="120.029" x2="295.853" y2="120.029" gradientUnits="userSpaceOnUse">
<stop stop-color="#83A6FF" stop-opacity="0"/>
<stop offset="1" stop-color="#5A78FF"/>
</linearGradient>
<linearGradient id="paint65_linear_1638_32300" x1="397.96" y1="120.029" x2="295.854" y2="120.029" gradientUnits="userSpaceOnUse">
<stop stop-color="#83A6FF" stop-opacity="0"/>
<stop offset="1" stop-color="#5A78FF"/>
</linearGradient>
<linearGradient id="paint66_linear_1638_32300" x1="397.958" y1="120.029" x2="295.853" y2="120.029" gradientUnits="userSpaceOnUse">
<stop stop-color="#83A6FF" stop-opacity="0"/>
<stop offset="1" stop-color="#5A78FF"/>
</linearGradient>
<linearGradient id="paint67_linear_1638_32300" x1="397.959" y1="120.029" x2="295.853" y2="120.029" gradientUnits="userSpaceOnUse">
<stop stop-color="#83A6FF" stop-opacity="0"/>
<stop offset="1" stop-color="#5A78FF"/>
</linearGradient>
<linearGradient id="paint68_linear_1638_32300" x1="397.959" y1="144.296" x2="295.854" y2="144.296" gradientUnits="userSpaceOnUse">
<stop stop-color="#83A6FF" stop-opacity="0"/>
<stop offset="1" stop-color="#5A78FF"/>
</linearGradient>
<linearGradient id="paint69_linear_1638_32300" x1="397.96" y1="149.671" x2="295.854" y2="149.671" gradientUnits="userSpaceOnUse">
<stop stop-color="#83A6FF" stop-opacity="0"/>
<stop offset="1" stop-color="#5A78FF"/>
</linearGradient>
<linearGradient id="paint70_linear_1638_32300" x1="397.959" y1="156.966" x2="295.853" y2="156.966" gradientUnits="userSpaceOnUse">
<stop stop-color="#83A6FF" stop-opacity="0"/>
<stop offset="1" stop-color="#5A78FF"/>
</linearGradient>
<linearGradient id="paint71_linear_1638_32300" x1="397.959" y1="141.861" x2="295.853" y2="141.861" gradientUnits="userSpaceOnUse">
<stop stop-color="#83A6FF" stop-opacity="0"/>
<stop offset="1" stop-color="#5A78FF"/>
</linearGradient>
<linearGradient id="paint72_linear_1638_32300" x1="397.959" y1="172.672" x2="295.853" y2="172.672" gradientUnits="userSpaceOnUse">
<stop stop-color="#83A6FF" stop-opacity="0"/>
<stop offset="1" stop-color="#5A78FF"/>
</linearGradient>
<linearGradient id="paint73_linear_1638_32300" x1="397.959" y1="164.818" x2="295.853" y2="164.818" gradientUnits="userSpaceOnUse">
<stop stop-color="#83A6FF" stop-opacity="0"/>
<stop offset="1" stop-color="#5A78FF"/>
</linearGradient>
<linearGradient id="paint74_linear_1638_32300" x1="397.959" y1="180.532" x2="295.853" y2="180.532" gradientUnits="userSpaceOnUse">
<stop stop-color="#83A6FF" stop-opacity="0"/>
<stop offset="1" stop-color="#5A78FF"/>
</linearGradient>
<linearGradient id="paint75_linear_1638_32300" x1="397.958" y1="141.925" x2="295.853" y2="141.925" gradientUnits="userSpaceOnUse">
<stop stop-color="#83A6FF" stop-opacity="0"/>
<stop offset="1" stop-color="#5A78FF"/>
</linearGradient>
<linearGradient id="paint76_linear_1638_32300" x1="397.959" y1="195.665" x2="295.853" y2="195.665" gradientUnits="userSpaceOnUse">
<stop stop-color="#83A6FF" stop-opacity="0"/>
<stop offset="1" stop-color="#5A78FF"/>
</linearGradient>
<linearGradient id="paint77_linear_1638_32300" x1="397.959" y1="188.381" x2="295.853" y2="188.381" gradientUnits="userSpaceOnUse">
<stop stop-color="#83A6FF" stop-opacity="0"/>
<stop offset="1" stop-color="#5A78FF"/>
</linearGradient>
<linearGradient id="paint78_linear_1638_32300" x1="397.959" y1="203.418" x2="295.853" y2="203.418" gradientUnits="userSpaceOnUse">
<stop stop-color="#83A6FF" stop-opacity="0"/>
<stop offset="1" stop-color="#5A78FF"/>
</linearGradient>
<linearGradient id="paint79_linear_1638_32300" x1="397.959" y1="203.418" x2="295.854" y2="203.418" gradientUnits="userSpaceOnUse">
<stop stop-color="#83A6FF" stop-opacity="0"/>
<stop offset="1" stop-color="#5A78FF"/>
</linearGradient>
<linearGradient id="paint80_linear_1638_32300" x1="397.959" y1="203.418" x2="295.853" y2="203.418" gradientUnits="userSpaceOnUse">
<stop stop-color="#83A6FF" stop-opacity="0"/>
<stop offset="1" stop-color="#5A78FF"/>
</linearGradient>
<linearGradient id="paint81_linear_1638_32300" x1="397.959" y1="203.361" x2="295.853" y2="203.361" gradientUnits="userSpaceOnUse">
<stop stop-color="#83A6FF" stop-opacity="0"/>
<stop offset="1" stop-color="#5A78FF"/>
</linearGradient>
<linearGradient id="paint82_linear_1638_32300" x1="397.959" y1="201.016" x2="295.853" y2="201.016" gradientUnits="userSpaceOnUse">
<stop stop-color="#83A6FF" stop-opacity="0"/>
<stop offset="1" stop-color="#5A78FF"/>
</linearGradient>
<linearGradient id="paint83_linear_1638_32300" x1="397.959" y1="203.418" x2="295.853" y2="203.418" gradientUnits="userSpaceOnUse">
<stop stop-color="#83A6FF" stop-opacity="0"/>
<stop offset="1" stop-color="#5A78FF"/>
</linearGradient>
<linearGradient id="paint84_linear_1638_32300" x1="211.525" y1="108.769" x2="190.348" y2="87.5275" gradientUnits="userSpaceOnUse">
<stop offset="0.0113208" stop-color="#C2D1FF"/>
<stop offset="1" stop-color="white"/>
</linearGradient>
<linearGradient id="paint85_linear_1638_32300" x1="267.237" y1="18.8037" x2="284.405" y2="7.66226" gradientUnits="userSpaceOnUse">
<stop stop-color="#83A6FF"/>
<stop offset="1" stop-color="#5A78FF"/>
</linearGradient>
<linearGradient id="paint86_linear_1638_32300" x1="278.349" y1="16.818" x2="282.121" y2="4.71148" gradientUnits="userSpaceOnUse">
<stop stop-color="#83A6FF"/>
<stop offset="1" stop-color="#5A78FF"/>
</linearGradient>
<linearGradient id="paint87_linear_1638_32300" x1="99.1355" y1="33.3671" x2="93.1143" y2="48.5174" gradientUnits="userSpaceOnUse">
<stop stop-color="#FF66A9"/>
<stop offset="1" stop-color="#F53689"/>
</linearGradient>
<linearGradient id="paint88_linear_1638_32300" x1="92.8243" y1="39.7762" x2="95.9436" y2="49.4019" gradientUnits="userSpaceOnUse">
<stop stop-color="#FF66A9"/>
<stop offset="1" stop-color="#F53689"/>
</linearGradient>
<linearGradient id="paint89_linear_1638_32300" x1="252.921" y1="196.092" x2="239.573" y2="185.497" gradientUnits="userSpaceOnUse">
<stop stop-color="#FF66A9"/>
<stop offset="1" stop-color="#F53689"/>
</linearGradient>
<linearGradient id="paint90_linear_1638_32300" x1="248.376" y1="187.885" x2="237.788" y2="188.142" gradientUnits="userSpaceOnUse">
<stop stop-color="#FF66A9"/>
<stop offset="1" stop-color="#F53689"/>
</linearGradient>
</defs>
</svg>