<svg xmlns="http://www.w3.org/2000/svg" width="228" height="179" viewBox="0 0 228 179" fill="none"><script xmlns=""/>
<path d="M137.368 113.459V145.562C137.149 149.52 120.088 153.039 96.0264 154.578C87.7143 155.018 78.5273 155.457 68.684 155.457C57.7471 155.457 47.4663 155.018 38.498 154.358C15.7491 152.599 0.218617 149.301 -0.00012207 145.562V113.459H137.368Z" fill="#171C2A"/>
<path d="M137.368 111.042V143.145C137.149 147.103 120.088 150.621 96.0264 152.16C87.7143 152.6 78.5273 153.04 68.684 153.04C57.7471 153.04 47.4663 152.6 38.498 151.94C15.7491 150.181 0.218617 146.883 -0.00012207 143.145V111.042H137.368Z" fill="url(#paint0_linear_1738_61530)"/>
<path d="M137.368 111.262C137.368 116.759 106.526 121.157 68.684 121.157C57.7471 121.157 47.4663 120.717 38.498 120.057C15.7491 118.518 -0.00012207 115.22 -0.00012207 111.262V111.042C0.218617 109.283 3.93719 107.524 10.0619 106.204C11.1556 105.985 12.2493 105.765 13.5617 105.545C20.1239 104.225 28.6547 103.346 38.498 102.466C47.685 101.807 57.9658 101.367 68.684 101.367C91.4329 101.367 111.338 102.906 124.025 105.325C125.775 105.545 127.087 105.985 128.619 106.424C134.087 107.744 137.149 109.283 137.368 111.042C137.368 111.042 137.368 111.262 137.368 111.262Z" fill="#EAEEF9"/>
<path d="M137.368 111.262C137.368 116.759 106.526 121.157 68.684 121.157C57.7471 121.157 47.4663 120.717 38.498 120.057C15.7491 118.518 -0.00012207 115.22 -0.00012207 111.262V111.042C0.218617 109.283 3.93719 107.524 10.0619 106.204C11.1556 105.985 12.2493 105.765 13.5617 105.545C20.1239 104.225 28.6547 103.346 38.498 102.466C47.685 101.807 57.9658 101.367 68.684 101.367C91.4329 101.367 111.338 102.906 124.025 105.325C125.775 105.545 127.087 105.985 128.619 106.424C134.087 107.744 137.149 109.283 137.368 111.042C137.368 111.042 137.368 111.262 137.368 111.262Z" fill="#23293A"/>
<path d="M128.619 85.5342V111.261C119.65 113.68 99.7451 116.318 68.6841 116.318C57.091 116.318 47.029 115.879 38.4981 115.219C25.155 114.339 15.7492 112.8 10.062 111.481V85.5342H128.619Z" fill="#2D3344"/>
<path d="M137.368 67.7253V99.8288C137.368 101.588 134.087 103.127 128.4 104.666C127.088 105.106 125.556 105.326 123.806 105.766C111.557 107.745 91.433 109.504 68.6841 109.504C57.7472 109.504 47.4664 109.064 38.4981 108.404C28.4361 107.745 19.9053 106.645 13.3431 105.326C12.0307 105.106 10.937 104.886 9.84327 104.666C3.71857 103.347 0 101.588 0 99.6089V67.7253H137.368Z" fill="url(#paint1_linear_1738_61530)"/>
<path d="M137.368 67.9457C137.368 73.4429 106.526 77.8406 68.6841 77.8406C57.7472 77.8406 47.4664 77.4008 38.4981 76.7412C15.7492 74.9821 0 71.6838 0 67.9457V67.7258C0.218739 65.9667 3.93731 64.2076 10.062 62.8883C11.1557 62.6684 12.2494 62.4485 13.3431 62.2286C19.9053 60.9093 28.4361 60.0298 38.4981 59.1502C47.6852 58.4906 57.9659 58.0508 68.6841 58.0508C91.433 58.0508 111.557 59.59 124.025 62.0087C125.556 62.2286 127.088 62.6684 128.4 63.1082C133.868 64.4275 136.931 65.9667 137.15 67.7258C137.368 67.7258 137.368 67.7258 137.368 67.9457Z" fill="#23293A"/>
<path d="M128.619 41.5586V67.2853C128.181 67.5052 127.744 67.5052 127.088 67.7251C117.463 69.924 97.9953 72.5626 68.6843 72.5626C57.0911 72.5626 47.0291 72.1228 38.4982 71.4632C25.3739 70.3638 16.1868 69.0444 10.4996 67.7251C10.2809 67.7251 10.2809 67.7251 10.0621 67.7251V41.5586H128.619Z" fill="#2D3344"/>
<path d="M137.368 24.1863V56.2897C137.368 58.0488 134.087 59.588 128.4 61.1272C127.088 61.3471 125.556 61.7869 124.025 62.0068C111.557 64.4255 91.4331 65.9648 68.6843 65.9648C57.7473 65.9648 47.4665 65.525 38.4982 64.8653C28.4362 64.2057 19.9054 63.1062 13.3432 61.7869C12.2495 61.567 10.9371 61.3471 10.0621 61.1272C3.71869 59.8079 0.00012207 58.2687 0.00012207 56.2897V24.1863H137.368Z" fill="url(#paint2_linear_1738_61530)"/>
<path d="M137.368 24.4066C137.368 29.9038 106.526 34.3015 68.6843 34.3015C57.7473 34.3015 47.4665 33.8617 38.4982 33.2021C15.7494 31.6629 0.00012207 28.3646 0.00012207 24.4066V24.1867C0.875079 18.9095 31.2798 14.5117 68.6843 14.5117C69.3405 14.5117 69.9967 14.5117 70.6529 14.5117C107.182 14.9515 136.493 19.1293 137.368 24.1867C137.368 24.4066 137.368 24.4066 137.368 24.4066Z" fill="#23293A"/>
<path d="M25.5926 50.7926C27.1631 50.7926 28.4362 49.4143 28.4362 47.7142C28.4362 46.014 27.1631 44.6357 25.5926 44.6357C24.0222 44.6357 22.749 46.014 22.749 47.7142C22.749 49.4143 24.0222 50.7926 25.5926 50.7926Z" fill="url(#paint3_linear_1738_61530)"/>
<path d="M13.9988 49.0345C15.5692 49.0345 16.8424 47.6563 16.8424 45.9561C16.8424 44.2559 15.5692 42.8777 13.9988 42.8777C12.4283 42.8777 11.1552 44.2559 11.1552 45.9561C11.1552 47.6563 12.4283 49.0345 13.9988 49.0345Z" fill="#3A4252"/>
<path d="M25.5926 94.3316C27.1631 94.3316 28.4362 92.9534 28.4362 91.2532C28.4362 89.5531 27.1631 88.1748 25.5926 88.1748C24.0222 88.1748 22.749 89.5531 22.749 91.2532C22.749 92.9534 24.0222 94.3316 25.5926 94.3316Z" fill="#3A4252"/>
<path d="M13.9988 92.5716C15.5692 92.5716 16.8424 91.1934 16.8424 89.4932C16.8424 87.7931 15.5692 86.4148 13.9988 86.4148C12.4283 86.4148 11.1552 87.7931 11.1552 89.4932C11.1552 91.1934 12.4283 92.5716 13.9988 92.5716Z" fill="#6dc599"/>
<path d="M25.5926 136.768C27.1631 136.768 28.4362 135.39 28.4362 133.69C28.4362 131.99 27.1631 130.611 25.5926 130.611C24.0222 130.611 22.749 131.99 22.749 133.69C22.749 135.39 24.0222 136.768 25.5926 136.768Z" fill="url(#paint5_linear_1738_61530)"/>
<path d="M13.9988 135.01C15.5692 135.01 16.8424 133.632 16.8424 131.932C16.8424 130.232 15.5692 128.853 13.9988 128.853C12.4283 128.853 11.1552 130.232 11.1552 131.932C11.1552 133.632 12.4283 135.01 13.9988 135.01Z" fill="#3A4252"/>
<path d="M221.583 125.115V166.014C221.146 172.83 182.21 178.327 134.088 178.327C85.965 178.327 47.0294 172.83 46.5919 166.014V125.115H221.583Z" fill="#171C2A"/>
<path d="M221.583 122.697V163.596C221.146 170.412 182.21 175.91 134.088 175.91C85.965 175.91 47.0294 170.412 46.5919 163.596V122.697H221.583Z" fill="url(#paint6_linear_1738_61530)"/>
<path d="M46.5919 122.916C46.5919 129.732 85.7463 135.449 134.088 135.449C182.429 135.449 221.583 129.952 221.583 122.916C221.583 116.099 182.429 110.382 134.088 110.382C85.7463 110.382 46.5919 116.099 46.5919 122.916Z" fill="#EAEEF9"/>
<path d="M46.5919 122.916C46.5919 129.732 85.7463 135.449 134.088 135.449C182.429 135.449 221.583 129.952 221.583 122.916C221.583 116.099 182.429 110.382 134.088 110.382C85.7463 110.382 46.5919 116.099 46.5919 122.916Z" fill="#2D3344"/>
<path d="M59.2788 90.1533V123.136C71.3095 125.995 96.2457 129.293 134.088 129.293C173.461 129.293 199.053 125.775 210.209 122.697V90.1533H59.2788Z" fill="#23293A"/>
<path d="M221.583 67.5049V108.404C221.146 115.22 182.21 120.717 134.088 120.717C85.965 120.717 47.0294 115.22 46.5919 108.404V67.5049H221.583Z" fill="url(#paint7_linear_1738_61530)"/>
<path d="M46.5919 67.7237C46.5919 74.5402 85.7463 80.2573 134.088 80.2573C182.429 80.2573 221.583 74.7601 221.583 67.7237C221.583 60.6874 182.429 55.1902 134.088 55.1902C85.7463 55.1902 46.5919 60.9072 46.5919 67.7237Z" fill="#2D3344"/>
<path d="M59.2788 34.3018V67.2848C71.3095 70.1433 96.2457 73.4416 134.088 73.4416C173.461 73.4416 199.053 69.9234 210.209 66.845V34.3018H59.2788Z" fill="#23293A"/>
<path d="M221.583 12.094V52.9929C221.146 59.8094 182.21 65.3066 134.088 65.3066C85.9649 65.3066 47.0293 59.8094 46.5918 52.9929V12.094H221.583Z" fill="url(#paint8_linear_1738_61530)"/>
<path d="M46.5917 12.5335C46.5917 19.35 85.746 25.0671 134.087 25.0671C182.429 25.0671 221.583 19.5699 221.583 12.5335C221.583 5.49717 182.21 0 133.869 0C85.746 0 46.5917 5.49717 46.5917 12.5335Z" fill="#23293A"/>
<path d="M78.9651 45.9562C81.0189 45.9562 82.6837 44.1842 82.6837 41.9982C82.6837 39.8123 81.0189 38.0403 78.9651 38.0403C76.9114 38.0403 75.2466 39.8123 75.2466 41.9982C75.2466 44.1842 76.9114 45.9562 78.9651 45.9562Z" fill="url(#paint9_linear_1738_61530)"/>
<path d="M64.3099 43.7572C66.3636 43.7572 68.0284 41.9852 68.0284 39.7993C68.0284 37.6134 66.3636 35.8413 64.3099 35.8413C62.2562 35.8413 60.5913 37.6134 60.5913 39.7993C60.5913 41.9852 62.2562 43.7572 64.3099 43.7572Z" fill="#3A4252"/>
<path d="M78.9651 101.588C81.0189 101.588 82.6837 99.8155 82.6837 97.6296C82.6837 95.4437 81.0189 93.6716 78.9651 93.6716C76.9114 93.6716 75.2466 95.4437 75.2466 97.6296C75.2466 99.8155 76.9114 101.588 78.9651 101.588Z" fill="#3A4252"/>
<path d="M64.3099 99.1698C66.3636 99.1698 68.0284 97.3978 68.0284 95.2119C68.0284 93.0259 66.3636 91.2539 64.3099 91.2539C62.2562 91.2539 60.5913 93.0259 60.5913 95.2119C60.5913 97.3978 62.2562 99.1698 64.3099 99.1698Z" fill="#6dc599"/>
<path d="M78.9651 155.679C81.0189 155.679 82.6837 153.907 82.6837 151.721C82.6837 149.535 81.0189 147.763 78.9651 147.763C76.9114 147.763 75.2466 149.535 75.2466 151.721C75.2466 153.907 76.9114 155.679 78.9651 155.679Z" fill="url(#paint11_linear_1738_61530)"/>
<path d="M64.3099 153.261C66.3636 153.261 68.0284 151.489 68.0284 149.303C68.0284 147.118 66.3636 145.345 64.3099 145.345C62.2562 145.345 60.5913 147.118 60.5913 149.303C60.5913 151.489 62.2562 153.261 64.3099 153.261Z" fill="#3A4252"/>
<path d="M227.653 132.586C227.653 139.182 224.809 145.119 220.434 149.297C216.497 153.035 211.028 155.234 205.122 155.234C205.122 155.234 203.81 155.234 174.28 155.234C173.187 155.234 172.093 155.234 170.999 155.234C169.249 155.234 167.281 155.234 165.531 155.234H130.095C115.002 155.674 103.19 143.58 103.19 129.068C103.19 114.555 115.002 102.461 130.095 102.901H130.314C131.845 98.2835 133.813 94.1056 136.438 90.8073C136.438 90.8073 136.438 90.8073 136.438 90.5875C141.032 84.4306 147.157 80.0329 153.937 77.6141C154.156 77.3942 154.594 77.3942 154.812 77.1744C163.781 74.0959 173.843 74.3158 182.811 77.6141C195.498 82.4516 205.779 93.446 207.966 109.937C219.122 111.697 227.653 121.152 227.653 132.586Z" fill="#6dc599"/>
<path d="M205.123 155.236C217.566 155.236 227.653 145.096 227.653 132.588C227.653 120.079 217.566 109.939 205.123 109.939C192.679 109.939 182.592 120.079 182.592 132.588C182.592 145.096 192.679 155.236 205.123 155.236Z" fill="#6dc599"/>
<path d="M168.374 155.457C190.482 155.457 208.404 137.441 208.404 115.217C208.404 92.9938 190.482 74.978 168.374 74.978C146.267 74.978 128.345 92.9938 128.345 115.217C128.345 137.441 146.267 155.457 168.374 155.457Z" fill="#6dc599"/>
<path d="M220.331 149.451C216.394 153.189 210.926 155.388 205.02 155.388C205.02 155.388 203.707 155.388 174.177 155.388L173.959 155.168L155.366 136.478L155.803 129.661L144.648 117.568L156.897 109.432L169.584 101.516L184.021 107.013L205.02 131.42L220.331 149.451Z" fill="#6dc599"/>
<path d="M158.428 117.788C159.303 116.908 159.303 115.589 158.428 114.709C157.553 113.83 156.46 114.05 155.147 114.05C159.085 103.935 172.209 101.736 178.99 109.872C181.615 112.73 185.771 108.992 183.365 106.134C176.146 97.7781 163.459 96.6787 155.147 103.935C152.085 106.574 149.898 110.092 148.804 114.05C145.96 114.05 145.523 114.05 144.867 114.709C143.992 115.589 143.992 116.908 144.867 117.788C152.96 125.704 150.772 125.704 158.428 117.788Z" fill="url(#paint16_linear_1738_61530)"/>
<path d="M192.771 122.845L187.739 117.788C186.865 116.908 185.552 116.908 184.677 117.788L179.646 122.845C178.771 123.725 178.771 125.044 179.646 125.923C180.521 126.803 181.615 126.583 182.927 126.583C178.99 136.918 165.428 138.897 158.647 130.321C157.553 129.002 155.804 128.782 154.491 129.881C150.116 133.619 160.397 141.535 169.584 141.535C178.552 141.535 186.646 135.379 188.833 126.583C191.677 126.583 192.114 126.583 192.771 125.923C193.645 125.264 193.645 123.944 192.771 122.845Z" fill="url(#paint17_linear_1738_61530)"/>
<defs>
<linearGradient id="paint0_linear_1738_61530" x1="137.306" y1="132.118" x2="-0.0803076" y2="132.118" gradientUnits="userSpaceOnUse">
<stop stop-color="#373D4E"/>
<stop offset="1" stop-color="#2D3344"/>
</linearGradient>
<linearGradient id="paint1_linear_1738_61530" x1="137.306" y1="88.6919" x2="-0.0801855" y2="88.6919" gradientUnits="userSpaceOnUse">
<stop stop-color="#373D4E"/>
<stop offset="1" stop-color="#2D3344"/>
</linearGradient>
<linearGradient id="paint2_linear_1738_61530" x1="137.307" y1="45.1529" x2="-0.0800635" y2="45.1529" gradientUnits="userSpaceOnUse">
<stop stop-color="#373D4E"/>
<stop offset="1" stop-color="#2D3344"/>
</linearGradient>
<linearGradient id="paint3_linear_1738_61530" x1="28.4583" y1="47.6985" x2="22.7059" y2="47.6985" gradientUnits="userSpaceOnUse">
<stop stop-color="#FF66A9"/>
<stop offset="1" stop-color="#F53689"/>
</linearGradient>
<linearGradient id="paint4_linear_1738_61530" x1="16.8091" y1="89.5187" x2="11.0569" y2="89.5187" gradientUnits="userSpaceOnUse">
<stop stop-color="#83A6FF"/>
<stop offset="1" stop-color="#5A78FF"/>
</linearGradient>
<linearGradient id="paint5_linear_1738_61530" x1="28.4583" y1="133.771" x2="22.7059" y2="133.771" gradientUnits="userSpaceOnUse">
<stop stop-color="#FF66A9"/>
<stop offset="1" stop-color="#F53689"/>
</linearGradient>
<linearGradient id="paint6_linear_1738_61530" x1="221.505" y1="149.402" x2="46.4898" y2="149.402" gradientUnits="userSpaceOnUse">
<stop stop-color="#2D3344"/>
<stop offset="1" stop-color="#373D4E"/>
</linearGradient>
<linearGradient id="paint7_linear_1738_61530" x1="221.505" y1="94.2097" x2="46.4898" y2="94.2097" gradientUnits="userSpaceOnUse">
<stop stop-color="#2D3344"/>
<stop offset="1" stop-color="#373D4E"/>
</linearGradient>
<linearGradient id="paint8_linear_1738_61530" x1="221.504" y1="38.7988" x2="46.4896" y2="38.7988" gradientUnits="userSpaceOnUse">
<stop stop-color="#2D3344"/>
<stop offset="1" stop-color="#373D4E"/>
</linearGradient>
<linearGradient id="paint9_linear_1738_61530" x1="82.7281" y1="42.0158" x2="75.4019" y2="42.0158" gradientUnits="userSpaceOnUse">
<stop stop-color="#FF66A9"/>
<stop offset="1" stop-color="#F53689"/>
</linearGradient>
<linearGradient id="paint10_linear_1738_61530" x1="67.8928" y1="95.2792" x2="60.5666" y2="95.2792" gradientUnits="userSpaceOnUse">
<stop stop-color="#83A6FF"/>
<stop offset="1" stop-color="#5A78FF"/>
</linearGradient>
<linearGradient id="paint11_linear_1738_61530" x1="82.7281" y1="151.639" x2="75.4019" y2="151.639" gradientUnits="userSpaceOnUse">
<stop stop-color="#FF66A9"/>
<stop offset="1" stop-color="#F53689"/>
</linearGradient>
<linearGradient id="paint12_linear_1738_61530" x1="165.462" y1="74.7228" x2="165.462" y2="155.311" gradientUnits="userSpaceOnUse">
<stop stop-color="#83A6FF"/>
<stop offset="1" stop-color="#5A78FF"/>
</linearGradient>
<linearGradient id="paint13_linear_1738_61530" x1="180.247" y1="105.35" x2="200.357" y2="127.173" gradientUnits="userSpaceOnUse">
<stop stop-color="#83A6FF"/>
<stop offset="1" stop-color="#87A5FF" stop-opacity="0"/>
</linearGradient>
<linearGradient id="paint14_linear_1738_61530" x1="137.967" y1="91.6839" x2="151.447" y2="102.021" gradientUnits="userSpaceOnUse">
<stop stop-color="#83A6FF"/>
<stop offset="1" stop-color="#87A5FF" stop-opacity="0"/>
</linearGradient>
<linearGradient id="paint15_linear_1738_61530" x1="157.945" y1="109.692" x2="206.17" y2="157.666" gradientUnits="userSpaceOnUse">
<stop stop-color="#4F6AFF"/>
<stop offset="1" stop-color="#657EFF" stop-opacity="0"/>
</linearGradient>
<linearGradient id="paint16_linear_1738_61530" x1="185.827" y1="133.515" x2="165.172" y2="112.968" gradientUnits="userSpaceOnUse">
<stop offset="0.0113208" stop-color="#C2D1FF"/>
<stop offset="1" stop-color="white"/>
</linearGradient>
<linearGradient id="paint17_linear_1738_61530" x1="181.908" y1="137.455" x2="161.253" y2="116.907" gradientUnits="userSpaceOnUse">
<stop offset="0.0113208" stop-color="#C2D1FF"/>
<stop offset="1" stop-color="white"/>
</linearGradient>
</defs>
</svg>