<svg xmlns="http://www.w3.org/2000/svg" width="452" height="280" viewBox="0 0 452 280" fill="none">
<rect x="-14.25" y="27.6484" width="71.4888" height="171.775" rx="10" fill="#2E2847"/>
<path d="M21.4953 48.8856C25.4083 48.8856 28.5804 45.6985 28.5804 41.767C28.5804 37.8355 25.4083 34.6484 21.4953 34.6484C17.5823 34.6484 14.4102 37.8355 14.4102 41.767C14.4102 45.6985 17.5823 48.8856 21.4953 48.8856Z" fill="#423C5B"/>
<path d="M43.8305 63.3618H-1.14475C-1.76085 63.3618 -2.37695 62.7428 -2.37695 62.1237C-2.37695 61.5047 -1.76085 60.8857 -1.14475 60.8857H43.8305C44.4466 60.8857 45.0627 61.5047 45.0627 62.1237C45.0627 62.7428 44.4466 63.3618 43.8305 63.3618Z" fill="#423C5B"/>
<path d="M43.8305 72.8378H-1.14475C-1.76085 72.8378 -2.37695 72.2188 -2.37695 71.5998C-2.37695 70.9808 -1.76085 70.3618 -1.14475 70.3618H43.8305C44.4466 70.3618 45.0627 70.9808 45.0627 71.5998C45.0627 72.2188 44.4466 72.8378 43.8305 72.8378Z" fill="#423C5B"/>
<path d="M43.8305 87.6234H-1.14475C-1.76085 87.6234 -2.37695 87.0044 -2.37695 86.3854C-2.37695 85.4569 -2.0689 84.8379 -1.14475 84.8379H43.8305C44.4466 84.8379 45.0627 85.4569 45.0627 86.0759C45.0627 87.0044 44.4466 87.6234 43.8305 87.6234Z" fill="#423C5B"/>
<path d="M15.4899 97.4091H-1.4528C-1.76085 97.4091 -2.37695 97.0996 -2.37695 96.4806V95.5521C-2.37695 95.2426 -2.0689 94.6235 -1.4528 94.6235H15.1819C15.4899 94.6235 16.106 94.933 16.106 95.5521V96.4806C16.106 97.0996 15.798 97.4091 15.4899 97.4091Z" fill="#423C5B"/>
<path d="M43.8305 111.885H-1.14475C-1.76085 111.885 -2.37695 111.266 -2.37695 110.647C-2.37695 110.028 -1.76085 109.409 -1.14475 109.409H43.8305C44.4466 109.409 45.0627 110.028 45.0627 110.647C45.0627 111.266 44.4466 111.885 43.8305 111.885Z" fill="#423C5B"/>
<path d="M15.4899 121.67H-1.4528C-1.76085 121.67 -2.37695 121.361 -2.37695 120.742V119.813C-2.37695 119.504 -2.0689 118.885 -1.4528 118.885H15.1819C15.4899 118.885 16.106 119.194 16.106 119.813V120.742C16.106 121.361 15.798 121.67 15.4899 121.67Z" fill="#423C5B"/>
<path d="M43.8305 136.146H-1.14475C-1.76085 136.146 -2.37695 135.527 -2.37695 134.908C-2.37695 134.289 -1.76085 133.67 -1.14475 133.67H43.8305C44.4466 133.67 45.0627 134.289 45.0627 134.908C45.0627 135.837 44.4466 136.146 43.8305 136.146Z" fill="#423C5B"/>
<path d="M21.0905 145.445H-1.6033C-2.11907 145.445 -2.37695 144.871 -2.37695 144.296C-2.37695 143.53 -1.99013 143.146 -1.6033 143.146H20.9616C21.4773 143.146 21.7352 143.721 21.7352 144.296C21.8641 144.871 21.4773 145.445 21.0905 145.445Z" fill="#6dc599"/>
<g filter="url(#filter0_d_874_29015)">
<rect x="69.2383" y="27.6484" width="138.006" height="171.775" rx="10" fill="#2E2847"/>
<path d="M191.596 45.1335H84.0866C82.8544 45.1335 82.2383 44.205 82.2383 43.2765C82.2383 42.0384 83.1624 41.4194 84.0866 41.4194H191.288C192.52 41.4194 193.136 42.348 193.136 43.2765C193.444 44.205 192.52 45.1335 191.596 45.1335Z" fill="#423C5B"/>
<path d="M191.596 56.8473H84.0866C82.8544 56.8473 82.2383 55.9188 82.2383 54.9903C82.2383 53.7523 83.1624 53.1333 84.0866 53.1333H191.288C192.52 53.1333 193.136 54.0618 193.136 54.9903C193.444 55.9188 192.52 56.8473 191.596 56.8473Z" fill="#423C5B"/>
<path d="M138.303 68.5617H84.0866C82.8544 68.5617 82.2383 67.6332 82.2383 66.7047C82.2383 65.4667 83.1624 64.8477 84.0866 64.8477H137.995C139.227 64.8477 139.844 65.7762 139.844 66.7047C140.152 67.6332 139.227 68.5617 138.303 68.5617Z" fill="#6dc599"/>
<path d="M188.207 156.223H86.551C84.0866 156.223 82.2383 154.366 82.2383 151.89V86.8946C82.2383 84.4185 84.0866 82.5615 86.551 82.5615H187.899C190.364 82.5615 192.212 84.4185 192.212 86.8946V151.89C192.52 154.366 190.672 156.223 188.207 156.223Z" fill="#423C5B"/>
<path d="M161.407 173.938H84.0866C82.8544 173.938 82.2383 173.009 82.2383 172.081C82.2383 170.843 83.1624 170.224 84.0866 170.224H161.407C162.639 170.224 163.255 171.152 163.255 172.081C163.255 173.009 162.331 173.938 161.407 173.938Z" fill="#423C5B"/>
<path d="M191.721 173.805H169.028C168.512 173.805 168.254 172.943 168.254 172.081C168.254 170.931 168.641 170.356 169.028 170.356H191.592C192.108 170.356 192.366 171.219 192.366 172.081C192.495 172.943 192.108 173.805 191.721 173.805Z" fill="#6dc599"/>
<path d="M191.596 185.652H84.0866C82.8544 185.652 82.2383 184.723 82.2383 183.795C82.2383 182.557 83.1624 181.938 84.0866 181.938H191.288C192.52 181.938 193.136 182.866 193.136 183.795C193.444 184.723 192.52 185.652 191.596 185.652Z" fill="#423C5B"/>
</g>
<path d="M284.553 73.455H222.019C220.478 73.455 219.246 72.217 219.246 70.6694V30.434C219.246 28.8865 220.478 27.6484 222.019 27.6484H284.553C286.093 27.6484 287.325 28.8865 287.325 30.434V70.6694C287.325 72.217 286.093 73.455 284.553 73.455Z" fill="#2E2847"/>
<path opacity="0.3" d="M274.273 42.3634L274.27 45.1829C274.281 45.6774 273.741 46.0804 273.132 46.0885L264.295 45.9595L232.027 45.4764C231.418 45.4846 230.921 45.0461 230.911 44.5516L230.913 41.7321C230.903 41.2376 231.443 40.8346 232.052 40.8265L264.107 41.2877L273.034 41.3907C273.798 41.5042 274.263 41.8689 274.273 42.3634Z" fill="url(#paint3_linear_874_29015)"/>
<path d="M230.942 44.6253L230.945 41.8058C230.934 41.3113 231.474 40.9083 232.083 40.9002L264.138 41.3614L264.081 45.9376L232.026 45.4764C231.417 45.4846 230.952 45.1198 230.942 44.6253Z" fill="#6dc599"/>
<path d="M239.793 41.0196L239.736 45.5958L232.027 45.4764C231.418 45.4846 230.921 45.0461 230.911 44.5516L230.913 41.7321C230.903 41.2376 231.443 40.8346 232.052 40.8265L239.793 41.0196Z" fill="#413B59"/>
<path opacity="0.3" d="M274.273 50.4787L274.27 53.2982C274.281 53.7927 273.741 54.1956 273.132 54.2038L264.295 54.0748L232.027 53.5917C231.418 53.5998 230.921 53.1613 230.911 52.6668L230.913 49.8473C230.903 49.3528 231.443 48.9498 232.052 48.9417L264.107 49.4029L273.034 49.506C273.798 49.6194 274.263 49.9842 274.273 50.4787Z" fill="url(#paint5_linear_874_29015)"/>
<path d="M230.942 52.7405L230.945 49.921C230.934 49.4265 231.474 49.0236 232.083 49.0154L264.138 49.4766L264.081 54.0528L232.026 53.5916C231.417 53.5998 230.952 53.235 230.942 52.7405Z" fill="#6dc599"/>
<path d="M239.793 49.1348L239.736 53.7111L232.027 53.5917C231.418 53.5998 230.921 53.1613 230.911 52.6668L230.913 49.8473C230.903 49.3528 231.443 48.9498 232.052 48.9417L239.793 49.1348Z" fill="#413B59"/>
<path opacity="0.3" d="M274.273 58.5944L274.27 61.4139C274.281 61.9084 273.741 62.3113 273.132 62.3195L264.295 62.1905L232.027 61.7074C231.418 61.7155 230.921 61.277 230.911 60.7825L230.913 57.963C230.903 57.4685 231.443 57.0656 232.052 57.0574L264.107 57.5186L273.034 57.6217C273.798 57.7351 274.263 58.0999 274.273 58.5944Z" fill="#6dc599"/>
<path d="M230.942 60.8562L230.945 58.0368C230.934 57.5422 231.474 57.1393 232.083 57.1311L264.138 57.5924L264.081 62.1686L232.026 61.7074C231.417 61.7155 230.952 61.3507 230.942 60.8562Z" fill="#6dc599"/>
<path d="M239.793 57.2506L239.736 61.8268L232.027 61.7074C231.418 61.7155 230.921 61.277 230.911 60.7825L230.913 57.963C230.903 57.4685 231.443 57.0656 232.052 57.0574L239.793 57.2506Z" fill="#413B59"/>
<path d="M284.553 134.262H222.019C220.478 134.262 219.246 133.024 219.246 131.476V91.2406C219.246 89.6931 220.478 88.4551 222.019 88.4551H284.553C286.093 88.4551 287.325 89.6931 287.325 91.2406V131.476C287.325 133.024 286.093 134.262 284.553 134.262Z" fill="#2E2847"/>
<path d="M284.553 195.068H222.019C220.478 195.068 219.246 193.83 219.246 192.283V152.047C219.246 150.5 220.478 149.262 222.019 149.262H284.553C286.093 149.262 287.325 150.5 287.325 152.047V192.283C287.325 193.83 286.093 195.068 284.553 195.068Z" fill="#2E2847"/>
<g filter="url(#filter1_d_874_29015)">
<rect x="299.324" y="28.1357" width="121.473" height="170.8" rx="10" fill="#2E2847"/>
<path d="M308.578 84.5749H407.077V44.6621L391.477 52.4663L383.232 58.2637L368.524 58.0407L355.599 64.73L344.457 66.2908L340.445 70.7503L328.857 78.1086L317.492 80.1153L308.578 84.5749Z" fill="#6dc599"/>
<path d="M308.578 84.5748H407.077V54.25L391.477 60.0474L383.232 64.5069L368.524 64.2839L355.599 69.4124L344.457 70.7502L340.445 73.8719L328.857 79.6693L317.492 81.2301L308.578 84.5748Z" fill="#383251"/>
<path d="M308.578 84.5749H407.077V67.4058L391.477 70.7504L383.232 73.2031H368.524L355.599 75.8789L344.457 76.7708L340.445 78.5546L328.857 81.6763L317.492 82.5682L308.578 84.5749Z" fill="#241E3D"/>
<path d="M406.185 97.3961H310.361C309.47 97.3961 308.578 96.7276 308.578 95.6133C308.578 94.722 309.247 93.8306 310.361 93.8306H406.185C407.077 93.8306 407.968 94.4991 407.968 95.6133C407.968 96.5047 407.077 97.3961 406.185 97.3961Z" fill="#423C5B"/>
<path d="M406.185 105.589H310.361C309.47 105.589 308.578 104.921 308.578 103.807C308.578 102.915 309.247 102.024 310.361 102.024H406.185C407.077 102.024 407.968 102.692 407.968 103.807C407.968 104.921 407.077 105.589 406.185 105.589Z" fill="#423C5B"/>
<path d="M406.185 113.783H310.361C309.47 113.783 308.578 113.114 308.578 112C308.578 111.109 309.247 110.217 310.361 110.217H406.185C407.077 110.217 407.968 110.886 407.968 112C407.968 113.114 407.077 113.783 406.185 113.783Z" fill="#423C5B"/>
<path d="M354.039 159.22C353.816 146.956 343.788 136.922 331.309 136.922H331.086C318.606 136.922 308.578 147.179 308.578 159.665C308.578 172.152 318.829 182.409 331.309 182.409C338.217 182.409 344.234 179.287 348.468 174.605C352.033 170.591 354.039 165.463 354.039 159.665C354.039 159.442 354.039 159.22 354.039 159.22ZM331.309 174.828C322.84 174.828 315.932 167.916 315.932 159.442C315.932 150.969 322.84 144.057 331.309 144.057H331.531C340 144.057 346.685 150.746 346.908 158.997C346.908 159.22 346.908 159.22 346.908 159.442C346.908 163.233 345.571 166.801 343.119 169.476C340 172.821 335.988 174.828 331.309 174.828Z" fill="#423C5B"/>
<path d="M354.039 159.22H346.685C346.462 150.969 339.777 144.28 331.309 144.28H331.086V136.922H331.309C343.788 136.922 353.816 146.733 354.039 159.22Z" fill="#6dc599"/>
<path d="M354.041 159.443C354.041 165.241 352.035 170.369 348.47 174.383L342.898 169.7C345.35 167.024 346.687 163.457 346.687 159.666C346.687 159.443 346.687 159.443 346.687 159.22H354.041V159.443Z" fill="#6dc599"/>
<path d="M365.748 152.585C367.102 152.585 368.2 151.487 368.2 150.132C368.2 148.777 367.102 147.679 365.748 147.679C364.394 147.679 363.297 148.777 363.297 150.132C363.297 151.487 364.394 152.585 365.748 152.585Z" fill="#423C5B"/>
<path d="M406.924 151.915H374.611C373.72 151.915 372.828 151.246 372.828 150.132C372.828 149.241 373.497 148.349 374.611 148.349H406.924C407.815 148.349 408.707 149.018 408.707 150.132C408.484 151.023 407.815 151.915 406.924 151.915Z" fill="#423C5B"/>
<path d="M365.748 162.118C367.102 162.118 368.2 161.02 368.2 159.665C368.2 158.311 367.102 157.212 365.748 157.212C364.394 157.212 363.297 158.311 363.297 159.665C363.297 161.02 364.394 162.118 365.748 162.118Z" fill="#6dc599"/>
<path d="M406.924 161.448H374.611C373.72 161.448 372.828 160.779 372.828 159.665C372.828 158.774 373.497 157.882 374.611 157.882H406.924C407.815 157.882 408.707 158.551 408.707 159.665C408.484 160.556 407.815 161.448 406.924 161.448Z" fill="#423C5B"/>
<path d="M365.748 171.651C367.102 171.651 368.2 170.553 368.2 169.198C368.2 167.844 367.102 166.746 365.748 166.746C364.394 166.746 363.297 167.844 363.297 169.198C363.297 170.553 364.394 171.651 365.748 171.651Z" fill="#6dc599"/>
<path d="M406.924 170.981H374.611C373.72 170.981 372.828 170.313 372.828 169.198C372.828 168.307 373.497 167.416 374.611 167.416H406.924C407.815 167.416 408.707 168.084 408.707 169.198C408.484 170.09 407.815 170.981 406.924 170.981Z" fill="#423C5B"/>
</g>
<rect x="432.797" y="27.6484" width="71.4888" height="171.775" rx="10" fill="#2E2847"/>
<path d="M490.875 63.3618H445.9C445.284 63.3618 444.668 62.7428 444.668 62.1237C444.668 61.5047 445.284 60.8857 445.9 60.8857H490.875C491.492 60.8857 492.108 61.5047 492.108 62.1237C492.108 62.7428 491.492 63.3618 490.875 63.3618Z" fill="#423C5B"/>
<path d="M490.875 72.8378H445.9C445.284 72.8378 444.668 72.2188 444.668 71.5998C444.668 70.9808 445.284 70.3618 445.9 70.3618H490.875C491.492 70.3618 492.108 70.9808 492.108 71.5998C492.108 72.2188 491.492 72.8378 490.875 72.8378Z" fill="#423C5B"/>
<path d="M490.875 87.6234H445.9C445.284 87.6234 444.668 87.0044 444.668 86.3854C444.668 85.4569 444.976 84.8379 445.9 84.8379H490.875C491.492 84.8379 492.108 85.4569 492.108 86.0759C492.108 87.0044 491.492 87.6234 490.875 87.6234Z" fill="#423C5B"/>
<path d="M462.535 97.4091H445.592C445.284 97.4091 444.668 97.0996 444.668 96.4806V95.5521C444.668 95.2426 444.976 94.6235 445.592 94.6235H462.227C462.535 94.6235 463.151 94.933 463.151 95.5521V96.4806C463.151 97.0996 462.843 97.4091 462.535 97.4091Z" fill="#423C5B"/>
<path d="M490.875 111.885H445.9C445.284 111.885 444.668 111.266 444.668 110.647C444.668 110.028 445.284 109.409 445.9 109.409H490.875C491.492 109.409 492.108 110.028 492.108 110.647C492.108 111.266 491.492 111.885 490.875 111.885Z" fill="#423C5B"/>
<path d="M462.535 121.67H445.592C445.284 121.67 444.668 121.361 444.668 120.742V119.813C444.668 119.504 444.976 118.885 445.592 118.885H462.227C462.535 118.885 463.151 119.194 463.151 119.813V120.742C463.151 121.361 462.843 121.67 462.535 121.67Z" fill="#423C5B"/>
<path d="M490.875 136.146H445.9C445.284 136.146 444.668 135.527 444.668 134.908C444.668 134.289 445.284 133.67 445.9 133.67H490.875C491.492 133.67 492.108 134.289 492.108 134.908C492.108 135.837 491.492 136.146 490.875 136.146Z" fill="#423C5B"/>
<path d="M468.135 145.445H445.442C444.926 145.445 444.668 144.871 444.668 144.296C444.668 143.53 445.055 143.146 445.442 143.146H468.006C468.522 143.146 468.78 143.721 468.78 144.296C468.909 144.871 468.522 145.445 468.135 145.445Z" fill="#6dc599"/>
<defs>
<filter id="filter0_d_874_29015" x="15.723" y="0.8908" width="245.038" height="278.805" filterUnits="userSpaceOnUse" color-interpolation-filters="sRGB">
<feFlood flood-opacity="0" result="BackgroundImageFix"/>
<feColorMatrix in="SourceAlpha" type="matrix" values="0 0 0 0 0 0 0 0 0 0 0 0 0 0 0 0 0 0 127 0" result="hardAlpha"/>
<feOffset dy="26.7576"/>
<feGaussianBlur stdDeviation="26.7576"/>
<feColorMatrix type="matrix" values="0 0 0 0 0.397708 0 0 0 0 0.47749 0 0 0 0 0.575 0 0 0 0.18 0"/>
<feBlend mode="normal" in2="BackgroundImageFix" result="effect1_dropShadow_874_29015"/>
<feBlend mode="normal" in="SourceGraphic" in2="effect1_dropShadow_874_29015" result="shape"/>
</filter>
<filter id="filter1_d_874_29015" x="248.418" y="2.68278" width="223.285" height="272.612" filterUnits="userSpaceOnUse" color-interpolation-filters="sRGB">
<feFlood flood-opacity="0" result="BackgroundImageFix"/>
<feColorMatrix in="SourceAlpha" type="matrix" values="0 0 0 0 0 0 0 0 0 0 0 0 0 0 0 0 0 0 127 0" result="hardAlpha"/>
<feOffset dy="25.453"/>
<feGaussianBlur stdDeviation="25.453"/>
<feColorMatrix type="matrix" values="0 0 0 0 0 0 0 0 0 0 0 0 0 0 0 0 0 0 0.18 0"/>
<feBlend mode="normal" in2="BackgroundImageFix" result="effect1_dropShadow_874_29015"/>
<feBlend mode="normal" in="SourceGraphic" in2="effect1_dropShadow_874_29015" result="shape"/>
</filter>
<linearGradient id="paint0_linear_874_29015" x1="-2.4168" y1="144.149" x2="21.8781" y2="144.149" gradientUnits="userSpaceOnUse">
<stop stop-color="#B79DFF"/>
<stop offset="1" stop-color="#8F69F8"/>
</linearGradient>
<linearGradient id="paint1_linear_874_29015" x1="82.1431" y1="66.4673" x2="140.185" y2="66.4673" gradientUnits="userSpaceOnUse">
<stop stop-color="#B79DFF"/>
<stop offset="1" stop-color="#8F69F8"/>
</linearGradient>
<linearGradient id="paint2_linear_874_29015" x1="168.214" y1="171.86" x2="192.509" y2="171.86" gradientUnits="userSpaceOnUse">
<stop stop-color="#B79DFF"/>
<stop offset="1" stop-color="#8F69F8"/>
</linearGradient>
<linearGradient id="paint3_linear_874_29015" x1="232.864" y1="49.1311" x2="270.217" y2="32.9315" gradientUnits="userSpaceOnUse">
<stop stop-color="#8F69F8"/>
<stop offset="1" stop-color="#A37DFF"/>
</linearGradient>
<linearGradient id="paint4_linear_874_29015" x1="232.339" y1="47.9236" x2="261.591" y2="35.2377" gradientUnits="userSpaceOnUse">
<stop stop-color="#8F69F8"/>
<stop offset="1" stop-color="#A37DFF"/>
</linearGradient>
<linearGradient id="paint5_linear_874_29015" x1="232.864" y1="57.2463" x2="270.217" y2="41.0467" gradientUnits="userSpaceOnUse">
<stop stop-color="#8F69F8"/>
<stop offset="1" stop-color="#A37DFF"/>
</linearGradient>
<linearGradient id="paint6_linear_874_29015" x1="232.339" y1="56.0389" x2="261.591" y2="43.3529" gradientUnits="userSpaceOnUse">
<stop stop-color="#8F69F8"/>
<stop offset="1" stop-color="#A37DFF"/>
</linearGradient>
<linearGradient id="paint7_linear_874_29015" x1="232.864" y1="65.3621" x2="270.217" y2="49.1625" gradientUnits="userSpaceOnUse">
<stop stop-color="#8F69F8"/>
<stop offset="1" stop-color="#A37DFF"/>
</linearGradient>
<linearGradient id="paint8_linear_874_29015" x1="232.339" y1="64.1546" x2="261.591" y2="51.4686" gradientUnits="userSpaceOnUse">
<stop stop-color="#8F69F8"/>
<stop offset="1" stop-color="#A37DFF"/>
</linearGradient>
<linearGradient id="paint9_linear_874_29015" x1="308.665" y1="64.6109" x2="407.164" y2="64.6109" gradientUnits="userSpaceOnUse">
<stop stop-color="#8F69F8"/>
<stop offset="1" stop-color="#8F69F8"/>
</linearGradient>
<linearGradient id="paint10_linear_874_29015" x1="331.186" y1="147.974" x2="353.951" y2="147.974" gradientUnits="userSpaceOnUse">
<stop stop-color="#8F69F8"/>
<stop offset="1" stop-color="#8F69F8"/>
</linearGradient>
<linearGradient id="paint11_linear_874_29015" x1="342.905" y1="166.741" x2="353.96" y2="166.741" gradientUnits="userSpaceOnUse">
<stop stop-color="#8F69F8"/>
<stop offset="1" stop-color="#8F69F8"/>
</linearGradient>
<linearGradient id="paint12_linear_874_29015" x1="363.452" y1="159.657" x2="368.197" y2="159.657" gradientUnits="userSpaceOnUse">
<stop stop-color="#8F69F8"/>
<stop offset="1" stop-color="#8F69F8"/>
</linearGradient>
<linearGradient id="paint13_linear_874_29015" x1="363.452" y1="169.207" x2="368.197" y2="169.207" gradientUnits="userSpaceOnUse">
<stop stop-color="#8F69F8"/>
<stop offset="1" stop-color="#8F69F8"/>
</linearGradient>
<linearGradient id="paint14_linear_874_29015" x1="444.628" y1="144.149" x2="468.923" y2="144.149" gradientUnits="userSpaceOnUse">
<stop stop-color="#B79DFF"/>
<stop offset="1" stop-color="#8F69F8"/>
</linearGradient>
</defs>
</svg>